<svg viewBox="0 0 40.2 45.5" xmlns="http://www.w3.org/2000/svg" xml:space="preserve">
    <path
        d="M0 25.3a20.1 20.1 0 0 0 0 .1 20.1 20.1 0 0 0 20.1 20.1 20.1 20.1 0 0 0 20.1-20 20.1 20.1 0 0 0 0-.2H34v.9c-.1 2.8-.3 5.9-1.6 8.6a8 8 0 0 1-5 3.8c-3.6 1-7.3 1-10.9.7a14 14 0 0 1-7.2-2.4c-2.2-1.8-2.6-4.6-3-6.9a36 36 0 0 1-.3-4.7zm8.1 0c0 1.5.1 3 .3 4.4.3 2.2.8 4.4 2.3 5.7a13 13 0 0 0 6.1 1.9c3.4.3 7 .2 10.2-.7 1.6-.4 3-1.3 3.7-2.6 1-2.4 1.3-5 1.4-7.8v-.9h-3v5.2c.1.8 0 1.6-.3 2.3-.4.7-1.1 1.4-2.1 1.6H15c-.7.1-1.5 0-2.3-.3a2.9 2.9 0 0 1-1.5-2v-.2l-.1-6.6zm5 0v6.4c.1.3.2.4.5.6.3.1.8.2 1.2.1h11.6c.3 0 .4-.2.6-.5.1-.3.2-.8.1-1.2v-5.4zM7.7 0a1.8 1.8 0 0 0-1.5 2.8l.9 1.4 1.2 2 1.2 2.2A20.2 20.2 0 0 0 .1 23.3h40l-.1-.9v-.2a20 20 0 0 0-9.3-13.8L32 6.3l1.2-2a620.8 620.8 0 0 0 1-1.9A1.8 1.8 0 0 0 30.8.9L30 2.4l-1.2 2-1.2 2.1-.2.2h-.1A20 20 0 0 0 20 5.4h-.2a20 20 0 0 0-7.1 1.3l-.1-.2-1.2-2-1.2-2.1a620.8 620.8 0 0 1-1-1.8A1.8 1.8 0 0 0 7.7 0zM29 14c.6 0 1.3.3 1.8 1 .6 1 .5 2.2-.3 2.8-.8.5-2 .1-2.6-.9-.7-1-.6-2.2.2-2.7l.9-.3zm-17.7 0c.3 0 .6 0 .8.2.8.5 1 1.8.3 2.7-.7 1-1.9 1.4-2.7.9-.8-.6-.9-1.8-.2-2.8a2 2 0 0 1 1.8-1z"
        fill="#fff" />
</svg>