<?xml version="1.0" encoding="UTF-8" standalone="no"?>
<!-- Created with Inkscape (http://www.inkscape.org/) -->

<svg
   width="40.199219"
   height="45.532478"
   viewBox="0 0 40.199219 45.532478"
   id="SVGRoot"
   version="1.1"
   enable-background="new"
   xml:space="preserve"
   xmlns="http://www.w3.org/2000/svg"
   xmlns:svg="http://www.w3.org/2000/svg"><defs
     id="defs4787" /><g
     id="patternLayer"
     style="display:inline"
     transform="translate(-33.900391,-28.567131)"><g
       id="phantomTop"
       transform="matrix(1.242,0,0,1.242,-8.1,-8.1)"
       style="opacity:1"><path
         id="path139"
         style="fill:#ffffff;fill-opacity:1;fill-rule:nonzero;stroke:none;stroke-width:1.61031;stroke-dasharray:none;stroke-opacity:1"
         d="M 33.824602,49.893066 A 16.183575,16.183575 0 0 0 33.81674,50 16.183575,16.183575 0 0 0 50,66.18326 16.183575,16.183575 0 0 0 66.18326,50 16.183575,16.183575 0 0 0 66.17536,49.893066 h -4.912692 c 0.0019,0.240519 0.0049,0.48208 0.0031,0.720234 v 0.01258 l -0.0016,0.01258 c -0.08549,2.254965 -0.244464,4.690061 -1.314664,6.917711 v 0.0031 c -0.793502,1.661837 -2.417787,2.598607 -4.010039,3.011461 -2.877035,0.763603 -5.86498,0.81969 -8.748176,0.562978 h -0.01101 l -0.01258,-0.0031 c -1.878594,-0.22169 -4.054158,-0.493247 -5.790182,-1.88236 l -0.01258,-0.0094 -0.01101,-0.01101 C 39.643059,57.74849 39.25261,55.526396 38.970033,53.704962 l -0.0016,-0.01101 v -0.01258 c -0.155026,-1.249478 -0.235918,-2.517617 -0.234312,-3.788307 z m 6.521425,0 c -0.0014,1.194737 0.07293,2.393353 0.220159,3.582301 0.274426,1.764248 0.664695,3.504984 1.832038,4.522696 1.286075,1.020979 3.10531,1.31385 4.94886,1.531677 2.760541,0.244758 5.559297,0.181317 8.183625,-0.515801 l 0.0031,-0.0016 h 0.0016 c 1.271609,-0.329715 2.441195,-1.059858 2.961139,-2.149696 v -0.0016 l 0.0016,-0.0016 c 0.892769,-1.857409 1.071385,-4.048933 1.155835,-6.257234 5e-6,-7e-4 -5e-6,-0.0025 0,-0.0031 0.0017,-0.235654 -0.0025,-0.470895 -0.0047,-0.706081 h -2.402878 c -0.0041,1.407998 -0.01029,2.813708 0,4.211327 0.08238,0.602232 0.0064,1.238141 -0.278344,1.816312 -0.297086,0.603309 -0.887963,1.148577 -1.676354,1.280067 l -0.05504,0.0079 -0.05661,0.0031 c -3.111498,0.08279 -6.211915,0.01197 -9.28442,0.0346 -0.602232,0.08238 -1.236568,0.0064 -1.814739,-0.278344 -0.603309,-0.297086 -1.15015,-0.887963 -1.28164,-1.676354 l -0.0079,-0.05504 -0.0016,-0.05661 c -0.04655,-1.768716 -0.04696,-3.529429 -0.04246,-5.286961 z m 4.014757,0 c -0.0042,1.721481 -0.0054,3.438832 0.03774,5.143858 0.04469,0.241612 0.152513,0.367431 0.393141,0.485922 0.246499,0.121347 0.621341,0.173413 0.927813,0.124233 l 0.05976,-0.01101 h 0.06133 c 3.086275,-0.02362 6.155497,0.04308 9.196357,-0.0346 0.241612,-0.04469 0.367431,-0.152513 0.485922,-0.393141 0.121347,-0.246499 0.173413,-0.621341 0.124233,-0.927813 l -0.01101,-0.05976 v -0.06133 c -0.01092,-1.426899 -0.0053,-2.848281 -0.0016,-4.266367 z" /><g
         style="display:inline;opacity:1;fill:none;stroke:none;stroke-opacity:1"
         id="g139"
         transform="matrix(0.04784794,0,0,0.04784794,-54.581298,29.522977)"><path
           id="path1-0"
           style="display:inline;fill:#ffffff;fill-opacity:1;stroke:none;stroke-width:33.6547;stroke-dasharray:none;stroke-opacity:1"
           d="m 1976.6742,0.1124287 c -4.62,0.394 -9.1392,1.8276979 -13.1792,4.2396979 -4.56,2.707 -8.1543,6.4154094 -10.7143,10.6814094 -0.74,1.247 -1.3891,2.549173 -1.9391,3.878173 -0.56,1.329 -1.0532,2.680369 -1.4132,4.075369 -1.49,5.628 -1.4228,11.691779 0.4272,17.451779 0.68,2.068 1.565,4.094321 2.695,6.047321 4.78,8.221 9.5467,16.461272 14.2967,24.682272 6.65,11.454 13.3096,22.891842 19.9496,34.34484 6.79,11.733 13.5868,23.46635 20.3768,35.19935 0.05,0.098 0.1144,0.19779 0.1644,0.29579 -13.7,8.517 -26.7118,17.94366 -39.0118,28.26466 -7.37,6.187 -14.4971,12.67959 -21.2971,19.45659 -13.55,13.472 -25.9656,28.07375 -37.1056,43.67875 -9.08,12.734 -17.2908,26.13137 -24.5508,40.09637 -5.66,10.863 -10.7369,22.06892 -15.2169,33.58892 -5.3,13.603 -9.7478,27.64446 -13.2778,42.03546 -2.01,8.238 -3.7171,16.5768 -5.1271,25.0438 -0.23,1.362 -0.4473,2.71336 -0.6573,4.07536 -0.76,4.907 -1.3991,9.85051 -1.9391,14.82251 h 673.0931 c -0.54,-4.972 -1.1562,-9.91551 -1.9062,-14.82251 l 0.033,-0.0329 c -0.22,-1.378 -0.4274,-2.71337 -0.6574,-4.07537 -1.39,-8.451 -3.117,-16.8058 -5.127,-25.0438 -3.53,-14.391 -7.9778,-28.43245 -13.2778,-42.03545 -4.48,-11.52 -9.5569,-22.72593 -15.2169,-33.58893 -7.28,-13.948 -15.5137,-27.36236 -24.5837,-40.09636 -11.12,-15.605 -23.5456,-30.20675 -37.1056,-43.67875 -5.69,-5.662 -11.569,-11.13221 -17.649,-16.36721 -13.17,-11.371 -27.2483,-21.73752 -42.0683,-30.99252 0.13,-0.214 0.2644,-0.44331 0.3944,-0.65731 6.79,-11.732 13.5868,-23.43449 20.3768,-35.16649 6.64,-11.453998 13.2768,-22.924706 19.9168,-34.377706 4.78,-8.221 9.5466,-16.461272 14.2966,-24.682272 1.13,-1.953 2.025,-3.947455 2.695,-6.014455 1.86,-5.76 1.9501,-11.822779 0.4601,-17.451779 -0.38,-1.394 -0.8532,-2.746369 -1.4132,-4.075369 -0.56,-1.33 -1.1991,-2.631173 -1.9391,-3.878173 -2.54,-4.266 -6.1871,-7.9734094 -10.7471,-10.6814094 -4.03,-2.395 -8.5264,-3.8296979 -13.1464,-4.2396979 -1.94,-0.16400001 -3.8772,-0.16413413 -5.8172,0.0328659 -1.6,0.164 -3.2184,0.47737861 -4.7984,0.8873786 -5.62,1.493 -10.8283,4.5751157 -14.8883,9.0381158 -1.46,1.608 -2.781,3.372272 -3.911,5.324272 -4.77,8.221 -9.5367,16.461272 -14.2967,24.682272 l -19.9167,34.377705 c -6.79,11.733 -13.6197,23.433492 -20.4097,35.166482 -0.74,1.279 -1.462,2.58118 -2.202,3.87818 -1.03,-0.411 -2.0594,-0.82204 -3.0894,-1.21604 -37.44,-14.275998 -78.0592,-22.085868 -120.5192,-22.085868 -1.16,0 -2.3138,-0.016 -3.4838,0 -37.75,0.377 -74.0258,6.951552 -107.8658,18.733548 -3.91,1.362 -7.7616,2.79543 -11.6016,4.30543 -0.69,-1.198 -1.4234,-2.38438 -2.1034,-3.58238 -6.79,-11.732998 -13.5869,-23.466352 -20.3769,-35.199352 -6.64,-11.453 -13.2767,-22.89084 -19.9167,-34.34484 -4.78,-8.221 -9.5466,-16.461272 -14.2966,-24.682272 -1.14,-1.953 -2.4511,-3.716271 -3.9111,-5.324271 -4.06,-4.4640003 -9.3011,-7.5779818 -14.9211,-9.0709818 -1.58,-0.40999999 -3.1555,-0.69051272 -4.7655,-0.85451272 -1.93,-0.19700001 -3.8773,-0.22973176 -5.8173,-0.0657317 z M 2334.8136,234.67618 c 10.9885,0.0355 22.7384,6.55001 30.3352,17.97763 11.06,16.621 9.0989,37.37489 -4.3711,46.34089 -13.46,8.967 -33.319,2.7526 -44.369,-13.8694 -11.06,-16.621 -9.0988,-37.37389 4.3712,-46.34089 4.2063,-2.80187 9.039,-4.12436 14.0337,-4.10823 z m -297.6333,0.0657 c 4.9952,-0.0161 9.8243,1.30605 14.0337,4.10823 13.47,8.966 15.4312,29.71889 4.3712,46.34089 -11.05,16.621 -30.899,22.80353 -44.369,13.83653 -13.46,-8.966 -15.4211,-29.68602 -4.3711,-46.30802 7.6037,-11.42693 19.3457,-17.94224 30.3352,-17.97763 z" /></g></g></g></svg>
