<svg viewBox="0 0 108 108" xmlns="http://www.w3.org/2000/svg" xml:space="preserve"><path d="M0 0h108v108H0z" fill="none"/>
    <path
        d="M33.91 53.87a20.1 20.1 0 0 0-.01.13A20.1 20.1 0 0 0 54 74.1 20.1 20.1 0 0 0 74.1 54a20.1 20.1 0 0 0-.01-.13h-6.1v.92c-.1 2.8-.3 5.83-1.63 8.6-.99 2.06-3 3.23-4.98 3.74a31.47 31.47 0 0 1-10.87.7h-.03c-2.33-.28-5.03-.62-7.19-2.34l-.01-.02h-.02c-2.12-1.85-2.6-4.6-2.96-6.87v-.03c-.2-1.55-.3-3.12-.3-4.7zm8.1 0c0 1.48.09 2.97.27 4.45.34 2.19.83 4.35 2.28 5.61 1.6 1.27 3.86 1.64 6.15 1.9 3.42.31 6.9.23 10.16-.63 1.58-.42 3.04-1.32 3.68-2.68 1.11-2.3 1.34-5.03 1.44-7.77v-.88H63v5.23c.1.75 0 1.54-.35 2.25a2.89 2.89 0 0 1-2.08 1.6h-.14c-3.86.11-7.71.02-11.53.05-.75.1-1.53 0-2.25-.35a2.9 2.9 0 0 1-1.6-2.08v-.14c-.06-2.2-.06-4.38-.06-6.56zm4.99 0c0 2.14-.01 4.27.04 6.39.06.3.2.45.5.6.3.15.76.21 1.14.15l.08-.01h.07c3.84-.03 7.65.05 11.43-.04.3-.06.45-.2.6-.5.15-.3.21-.76.15-1.14l-.01-.08v-5.37zm-5.42-25.3a1.83 1.83 0 0 0-1.44 2.76L41 32.8l1.19 2.04 1.21 2.09.01.02A20.17 20.17 0 0 0 34 51.87h40l-.11-.88-.04-.25a19.92 19.92 0 0 0-5.66-10.96 19.85 19.85 0 0 0-3.55-2.81l.02-.04 1.21-2.1a620.84 620.84 0 0 0 2.03-3.51 1.85 1.85 0 0 0 0-1.86 1.83 1.83 0 0 0-2.06-.83 1.83 1.83 0 0 0-1.12.85l-.84 1.47-1.19 2.04-1.21 2.1-.13.22-.19-.07A20.06 20.06 0 0 0 54 33.93h-.2a20.07 20.07 0 0 0-7.1 1.37l-.13-.22L45.36 33l-1.18-2.04-.85-1.47a1.88 1.88 0 0 0-1.12-.85 1.88 1.88 0 0 0-.63-.06zm21.28 13.94c.65 0 1.35.4 1.8 1.07.66.99.54 2.22-.26 2.76-.8.53-1.98.16-2.63-.83-.66-.99-.54-2.22.26-2.75.25-.17.53-.25.83-.25zm-17.69 0c.3 0 .59.09.84.25.8.53.91 1.77.26 2.76-.66.98-1.84 1.35-2.64.82-.8-.53-.92-1.77-.26-2.75a2.26 2.26 0 0 1 1.8-1.07z"
        fill="#fff" />
</svg>