<svg xmlns:xlink="http://www.w3.org/1999/xlink" enable-background="new"
    height="108" width="108" xmlns="http://www.w3.org/2000/svg" xml:space="preserve"><defs><path style="marker:none" color="#000" d="M0 0h100v100H0z" fill="url(#radialGradient3070)" id="b"   stroke-width="0"/><path
    d="M91.66388 20.91407h-5.3931v.34511h.16154c.72686 0 .80755.03694.80755.34526V25.525c0 .3082-.08067.34497-.80755.34497h-.16153v.34512h5.50968l.17949-1.96036h-.39487c-.11645.5138-.32308.9691-.53832 1.18213-.27828.29361-.78975.43311-1.54345.43311h-.59231c-.26922 0-.49352-.04395-.57436-.11017-.06264-.04374-.0716-.08802-.0716-.24209V23.6455h.17949c.54721 0 .77164.04395.95128.19803.23304.19116.32293.42609.34088.85905h.42172v-2.40805h-.42172c-.04493.71956-.40392 1.00586-1.25642 1.00586h-.21523v-1.67405c0-.31564.08078-.36715.5653-.36715h.46653c.78975 0 1.17557.0662 1.48084.27186.29609.19087.51133.60194.64602 1.26268h.38597l-.12579-1.87965Zm-11.90806 2.94418h1.01403c.8077 0 1.22942-.05141 1.58854-.19072.63696-.24983.99593-.7197.99593-1.2996 0-.55774-.31417-.98383-.90633-1.22608-.34993-.14665-.90634-.22778-1.5255-.22778h-3.14074v.34511h.16154c.72685 0 .80755.03694.80755.34526V25.525c0 .3082-.08068.34497-.80755.34497h-.16154v.34512h3.0151v-.34512h-.23348c-.72685 0-.80755-.03672-.80755-.34497v-.21304Zm0-.34497v-1.8795c0-.33768.054-.3746.54752-.3746h.57435c.9332 0 1.37286.35985 1.37286 1.13807 0 .75633-.45761 1.11603-1.40876 1.11603zm-7.80699-2.7018h-.37677l-2.06411 4.28013c-.17934.38189-.21524.4334-.34978.55072-.14374.1395-.39502.22764-.6374.22764h-.03575v.34512h2.378v-.34512h-.17963c-.48433 0-.72671-.1395-.72671-.41837 0-.08823.027-.19086.08067-.30834l.29624-.64615h2.37798l.48462.98383c.0539.11017.07182.1614.07182.1983 0 .11733-.22458.19073-.55642.19073h-.37692v.34512h2.78191v-.34512h-.12564c-.44886 0-.5475-.05864-.75385-.46973l-2.28825-4.58876Zm-.43966 1.20403 1.01388 2.08512h-2.0101Zm-6.1919-1.15266h-.34101l-.35883.43325c-.6374-.38203-.98705-.49206-1.5884-.49206-.87044 0-1.5884.28645-2.1985.88095-.57437.55802-.8436 1.1747-.8436 1.93102 0 1.57862 1.26517 2.70925 3.0332 2.70925 1.43575 0 2.351-.69023 2.55748-1.92373l-.42173-.05864c-.08975.38919-.19757.6533-.35912.87365-.36773.50665-.94208.76377-1.66909.76377-1.32806 0-1.95611-.75647-1.95611-2.3348 0-.82987.1344-1.38775.43951-1.82829.27829-.41107.83455-.66818 1.40906-.66818.62806 0 1.18447.2717 1.5255.74173.17044.24223.30513.52854.51162 1.09385h.39442l-.1344-2.12175zm-8.98255.00756h-.33198l-.35897.44054c-.42187-.33037-.99608-.50665-1.6332-.50665-1.17557 0-1.96516.61668-1.96516 1.53469 0 .8001.48432 1.19659 1.80349 1.4756l.85248.17627c.6641.13936.72686.1541.9154.27172.26922.16868.41281.41092.41281.69738 0 .2936-.13469.53583-.40377.73429-.29623.21276-.59216.2936-1.08583.2936-.6641 0-1.13967-.16898-1.56139-.55073-.37693-.34525-.56531-.69022-.69986-1.25553h-.38597l.03585 2.09256h.35008l.40362-.49936c.60122.40378 1.10408.55073 1.88449.55073 1.31915 0 2.16274-.63127 2.16274-1.61539 0-.45514-.18853-.84418-.53832-1.12319-.24237-.19087-.5923-.31578-1.3104-.46257l-.96019-.19817c-.7985-.16884-1.17542-.45529-1.17542-.90313 0-.5138.51147-.8665 1.27422-.8665.6282 0 1.13952.22049 1.4985.63886.26033.30104.42172.60938.5386.98382h.38584l-.10768-1.90884zm-12.13234 2.94417V21.6047c0-.30834.08057-.34526.80755-.34526h.17058v-.34511h-2.95235v.34511h.16154c.72685 0 .8074.03694.8074.34526v3.92056c0 .3082-.08056.34497-.8074.34497h-.16154v.34512h2.95235v-.34512h-.17058c-.727 0-.80755-.03682-.80755-.34497V24.3799l1.04088-.85906 1.5614 1.87222c.14374.17612.17949.23494.17949.30848 0 .11733-.1703.1687-.61012.1687h-.27827v.3451h3.06894v-.3451h-.17044c-.49351 0-.6193-.05141-.87948-.36701l-2.17152-2.56244 1.33711-1.09386c.43063-.37443.978-.58749 1.51646-.58749v-.34511h-2.76397v.34511h.22458c.41283 0 .58312.0662.58312.22035 0 .1027-.1795.31564-.43968.52854zm-10.03263-2.90025h-1.84858v.34511h.22444c.45761 0 .6641.05876.8255.24253v3.12016c0 1.00587-.1795 1.21877-1.04089 1.2481v.34512h2.55762v-.34512c-.85278-.02937-1.03212-.24223-1.03212-1.2481V21.8983l4.00243 4.41992h.37678v-3.81053c0-1.00572.17934-1.21877 1.04088-1.24825v-.34511h-2.55748v.34511c.8525.02949 1.03198.24253 1.03198 1.24825V24.813Zm-5.83276.90313v-.21276c0-.30834.08067-.34526.7985-.34526h.17948v-.34511h-2.97015v.34511h.17948c.72685 0 .80755.03694.80755.34526v3.92056c0 .3082-.08067.34497-.80755.34497h-.17948v.34512h2.97015v-.34512h-.17949c-.7178 0-.7985-.03682-.7985-.34497v-.21304z" id="d"
    stroke-width="1pt" /><path
    d="M53.32637 81.56866 37.27954 97.98937c-5.4218 6.71425 3.6898 5.93306 7.59579 7.86695 1.40114 1.4322-5.37044 2.48928-3.9693 3.92276 1.40113 1.4322 8.47254 2.75919 9.87607 4.19148 1.40115 1.4322-2.86798 2.95154-1.46684 4.38372 1.40114 1.4322 4.64181.0756 5.2486 3.3816.43242 2.3627 5.8399 1.0154 8.4845-.91974 1.40115-1.43337-2.68044-1.29837-1.2793-2.73056 3.48433-3.56324 6.72858-1.29492 7.92068-4.86518.5889-1.7643-5.12915-2.71988-3.72562-4.15206 4.03141-2.35438 17.9652-3.88691 11.35366-10.49844L60.68445 81.56866c-2.03422-1.953-5.42897-1.9745-7.35808 0zm18.43224 31.65174c0 .81464 6.00233 1.3486 6.00233-.19235-.85525-2.47504-5.2928-2.30775-6.00233.19235zm-27.03856 4.32885c1.42144 1.22915 3.61693-.30585 4.27509-2.02111-1.37725-1.82995-6.5327.06588-4.2751 2.02111zm26.28603-2.6554c-1.83235 1.64366.20545 3.31118 2.01153 2.24921.40254-.40845-.0108-1.84064-2.01153-2.2492z"
    id="e" /><path
    d="M49.48608 106.74502c.42882.26637 6.91492 1.58395 8.50002 1.84671.54946.11589.16005.68202-.59725 1.06423-1.70813.45393-9.99314-2.91094-7.90277-2.91094zm10.22845-24.02486 6.34874 6.44788c.60202.61517.59366 1.80727.2568 2.15009l-3.15226-2.52158-.61994 3.734-2.63387-1.3904-4.21775 2.66491-1.39637-5.6177-2.26594 3.92033H48.5699c-1.4119 0-1.57792-1.79174-.29504-3.07463 2.24087-2.41885 4.81262-4.88429 6.21017-6.3129 1.40473-1.43579 3.85225-1.39517 5.2295 0z" fill="#fff"
    id="f" /><path
    style="line-height:100%;-inkscape-font-specification:&quot;Euphoria Script&quot;" d="M109.8503 40.23567q2.3202-1.13792 2.5606-3.97352.186-2.4898-.6114-5.68054-4.6175 2.38741-5.4222 7.07206-.039.31176-.4521.31617-.2327-.0181-.2304-.20804.2868-2.21912 1.6902-4.37864 1.4161-2.13367 4.2015-3.62721-.3485-1.42876-.9383-3.28215-.589-1.85376-1.0504-3.6417l-.2322.11386q-.4308 7.59868-2.1838 8.45843-1.9593.96092-3.4388-2.05579-1.4792-3.01595-1.6821-6.68994-.2158-3.70067.7277-4.45045l.1545-.0758q.4384-.21504.7184.35587.056.83196.1759 2.18389.1055 1.32413.6479 4.25553.5302 2.90629 1.2384 4.35032.6952 1.41738 1.314 1.11387.7217-.35392 1.0938-3.63852.5507-4.81127.4321-9.42182-.024-1.93929.8271-2.3566.5412-.26544.8324.32831-.048 1.14247.4702 3.95838.518 2.81594 1.3185 5.5575.788 2.71564 1.1744 4.28536 2.1236-.62598 3.1031.58868.169.20985.3557.59046.2016.41105.031.84428-.156.46367-.3882.57753-.036-.20882-.2945-.65823-.2394-.43031-.5463-.65751-.2817-.24901-.8327-.39429-.5509-.14529-1.2443.006 1.6818 8.45026-3.2164 10.8525-2.114 1.03679-3.5436-.11763-.06-.0649-.086-.11821-.075-.15224.1831-.34478.2581-.12656.4763-.007.9829.8296 2.6841-.005zm-5.8407-2.47555q-1.4953.73334-2.9885-.4853-1.46703-1.23146-3.00964-4.37681-1.54261-3.14535-2.72572-7.9052-1.18349-4.76062-1.33672-8.20304-.12779-3.45585.80028-3.91101.43846-.21504.69233.30259.0658 1.50318.46712 4.40843.3887 2.87934.85833 5.27137.49552 2.37934 1.42237 5.4433.9522 3.05057 1.95085 5.08683.9864 2.01114 1.9039 2.90394.9566.90675 1.6525.56545.593-.29083.8543-1.12726.2762-.8059.2422-1.46251-.01-.34475.3897-.37998.1659.013.154.1794.036.20882.01.54268 0 .3219-.098 1.0397-.1791 1.59116-1.2361 2.10957zM88.98873 24.94693q1.9593-.96092 3.08453 1.33339.64474 1.31462.47641 3.18855-.31956 3.13037-2.79443 4.34415-.3867.18965-.70822.1868-.32152-.003-.5771-.19857 1.83035-.89767 2.31467-3.75757.40304-2.30821-.29248-3.72636-.51818-1.05657-1.36892-.63933-1.70147.83447-1.86875 4.21028-.15655 3.65857 1.33529 6.70039 1.26447 2.57825 2.98667 2.37291.3362-.0327.7739-.24735.43847-.21504.82728-.66069.37449-.47641.55987-.94505.36747-.94512.43843-1.91007.002-.25593.2859-.39518.46434-.22773.51313-.0628.0605.31973-.12521 1.24463-.16169.9103-.39682 1.53838-.22218.59056-.76883 1.23639-.50561.66347-1.20205 1.00503-2.73269 1.34022-4.74476-.87137-.66188-.7623-1.11734-1.69098-.84709-1.72721-1.04663-4.15539-.25398-3.71313 1.29294-6.16685.85704-1.31743 2.1202-1.93693zM78.98146 29.8549q1.95922-.96088 3.08445 1.33343.64474 1.31462.47648 3.18851-.31963 3.13041-2.7945 4.34419-.3867.18965-.70822.1868-.32152-.003-.5771-.19857 1.83035-.89767 2.31467-3.75757.40304-2.30821-.29248-3.72636-.51818-1.05657-1.36892-.63933-1.70148.83447-1.86875 4.21028-.15655 3.65857 1.33529 6.70039 1.26447 2.57825 2.98667 2.37291.3362-.0327.7739-.24735.43846-.21504.82728-.66069.37449-.47641.55987-.94505.36747-.94512.43843-1.91007.002-.25593.2859-.39518.46434-.22773.51312-.0628.0605.31973-.1252 1.24463-.16169.9103-.39682 1.53838-.22219.59056-.76883 1.23639-.50561.66347-1.20205 1.00503-2.73269 1.34022-4.74476-.87137-.66188-.7623-1.11734-1.69098-.84709-1.72721-1.04656-4.15543-.25405-3.71309 1.29294-6.16685.85697-1.31739 2.12021-1.93693zm-5.99756 9.27308q-.97961.48044-2.02905-1.65934-.59397-1.2111-.64818-2.49616-1.00717 2.38069-1.1369 7.59367-.1428 5.18633.47693 6.44995.15307.3121-.25951.51445-.74752.36661-1.74656-1.67041-1.88383-3.8411-2.64035-7.33988-.75614-3.49801.35242-4.0417.49022-.24042.77022.33049.65986 4.34508 2.07889 8.54256l.18041-.0885q-.27614-5.84491.9227-9.79086.68511-2.25485 1.87094-2.83643.25805-.12656.48724-.0501.25508.0638.37081.29974-.0908.27117-.17339.7555-.0826.48434.15133 2.06843.21898 1.55555 1.0026 3.15334.1008.20553-.0278.26863zm-24.00261 4.57617q.93557 1.90762 2.08179 1.50599.0978.39586-.41752.6486-1.05703.51841-2.12769-.55616-.49748-.49258-.91412-1.3421-.43008-.87692-.35418-2.41655.14265-3.55637 3.74658-6.31542 1.23938-.92891 2.78618-1.68752 1.5726-.77127 2.52802-1.62701.95549-.85579 1.18133-1.4387.58996-1.53584 1.10553-1.7887.51534-.25274.66841.0594.0373.0761.0747.15224.17425.81164-.87704 2.12424-.64947.76235-1.57615 1.48124-.67528.77501-.44428 2.68066.2169 1.87669 1.09001 5.22196 1.27704-.78684 2.15358-1.21673.23217-.11387.34443.18048.0503.36249-.37696.60037-.43847.21504-1.90971 1.25766 1.72164 6.57513 2.03307 9.49236.80387 7.37746-3.39828 9.43837-3.01625 1.47929-5.1168-.91272-.75172-.81455-1.21951-1.76836-.88479-1.80408-.81608-4.07675.0907-3.46668 2.43669-4.61725.33494-.16427.61589-.1132.30684.0384.53679.31277-2.21705 1.08733-2.53547 4.08967-.26189 2.3353.67368 4.24291 1.36564 2.78454 3.62846 2.44249.52781-.0983 1.2751-.46483.74752-.36661 1.35607-1.21277.64913-.82829.76238-2.29275.1518-1.45032.22381-2.41295.0592-.98843-.33485-3.22587-.50499-2.72598-1.04037-4.99039-.54701-2.28988-.64659-2.75286-1.33165.93639-2.07925 1.30304-.72163.35392-1.14234-.24241-.2767-.50643-.007-.73301.20331.0891.87387-.23971.69575-.34123 2.10204-1.19147-.59433-2.84269-.77295-4.70604-.19101-1.88939.2038-3.10571l-1.28905.6322q-4.94974 2.42755-5.50603 6.31427-.28375 1.83421.3987 3.22572zm13.93518-.27799q.0635.1294-.1687.24327-.23218.11386-.51288.12877-.25856-.005-.34442-.18047-1.28949-2.62925-1.4805-4.51863-.2037-1.91527.77591-2.39571.25805-.12656.52806-.0324.27001.0942.41934.3987-.59114 1.72906.0184 4.27626.26186 1.05574.76736 2.08643zm-26.85252 8.49992q1.02752.2043 1.69785-.12446.69575-.34122.89009-.66317.16426.33494.008.79861-.1458.4209-.7126.69889-.54123.26544-1.31284.3228 1.13504 2.44909 1.6409 5.36728.49157 2.89309.15269 5.20195-.35143 2.2829-1.51153 2.85186-1.16009.56895-2.22121-.0297-1.13792-.68935-2.04848-2.54596-.51818-1.05657-.98388-2.33152-.38965 7.2914-2.11693 8.13853-1.70148.83447-3.1179-2.05359-1.46645-2.99006-1.66579-7.11339-.0901-3.31378.87762-3.94894.49023-.24042.75529.30004.0568.89757.17487 2.3128.10462 1.38783.596 4.34523.51696 2.94486 1.12362 4.18184.59435 1.21185 1.13557.94642.67064-.32891 1.02605-3.18979.38152-2.87369.40214-5.57039l.0595-2.6827q.0134-1.79795.58076-2.0762.56711-.27813.83217.26234 1.06992 6.15913 2.56176 9.20095.69552 1.41815 1.52045 1.01357.92808-.45516 1.18758-2.46917.27261-2.05255-.25815-4.83011-.51832-2.81671-1.69395-5.21378l-.0747-.15224q-1.01258-.17386-1.84406-.69527-.83021-.51827-1.00791-.88061-.1904-.38822-.005-.85697.18187-.47636.56857-.66602.48946-.24005 1.30654.44707.80372.66063 1.47631 1.70663zM17.6483 75.44555q-2.11398 1.03678-3.74507-2.28898-.97365-1.98526-1.15689-4.83693-.26478-3.99586 1.35792-6.29505.70002-.98545 1.52495-1.39003.82501-.40461 1.46451-.27442.66569.11734.97354.41963l.31879.25915q.13889.47959-.22193.65655-.41258.20234-.57982.0577-.15409-.17939-.29291-.27184-.15231-.11416-.55122-.21126-.41087-.11956-.77168.0574-1.67575.82185-1.56254 4.50865.16007 4.2389 1.6646 7.30661.75861 1.54679 1.37748 1.24327.49023-.24042.83544-1.75254.3584-1.55165.529-3.68165.31044-3.67077.34334-6.27716-.0336-2.28574.89444-2.74091.48946-.24005.78066.3537.007.60105.0898 1.68309.0816 1.07901.80339 4.05088.72189 2.97183 2.02445 5.62772 1.30218 2.65513 2.10138 2.26317.30906-.15157.42898-.55978.13112-.38538.0723-1.02701-.0605-.31973.22269-.45861.10276-.0504.19186.00033.0906.05.12693.25882.0363.20882.0585.57566.0356.39802-.1374 1.15429-.14751.74281-.61148.97036-1.08275.53102-2.37081-.59558-1.26253-1.13998-2.2108-3.07348-.94826-1.93349-1.5368-3.85171l-.25806.12656q-.53045 7.19993-2.18032 8.00909zm-7.54069-5.48049q-.97961.48044-2.02905-1.65934-.59397-1.2111-.64819-2.49616-1.00716 2.38069-1.1369 7.59367-.1428 5.18633.47694 6.44996.15306.3121-.25952.51444-.74751.36661-1.74655-1.67041-1.88383-3.8411-2.64035-7.33988-.75615-3.49801.35241-4.0417.49023-.24042.77023.33049.65985 4.34508 2.07888 8.54257l.18041-.0885q-.27614-5.84492.9227-9.79086.68512-2.25486 1.87094-2.83644.25805-.12656.48725-.0501.25507.0638.3708.29974-.0908.27117-.17339.75551-.08259.48433.15134 2.06842.21897 1.55555 1.0026 3.15335.1008.20552-.0278.26862zm-28.80073 8.01722q-.95389.46782-1.61132-.87268-.65744-1.34051-.0747-3.67358.95492-3.92169 4.86469-6.38313l1.38051-.77149q4.692-2.30114 8.63896.3997 2.38883 1.67552 3.85528 4.66559.60704 1.23774 1.07088 2.7053 1.50293 4.95523.26044 9.52978-1.36133 5.04927-5.48614 7.07224-4.099 2.01032-6.33271.25966-.6896-.55889-1.08086-1.35665-.40469-.82516-.40862-1.94224.0414-2.06756 1.5108-2.78824.12865-.0631.2292.0765.11675.10327.11529.29285.0214.17838-.10574.24072-.87654.4299-.96443 1.88097-.021 1.00087.30795 1.6715.32854.66987.8651 1.11118 1.68441 1.3477 4.80373-.18214 3.5319-1.73218 4.6235-6.74455.98494-4.51244-.41667-9.26146-.43746-1.54471-1.0572-2.80833-1.37796-2.80965-3.58947-4.1236-2.95284-1.78231-6.53627-.0249-4.4857 2.19997-5.24904 6.31666-.37568 2.1031.28176 3.4436.26506.54047.49723.4266.0993.59342-.39088.83384zm8.50402 7.94956q-1.92191-3.91875-3.03383-7.94579-1.12499-4.05368-1.16871-6.68671-.031-2.67138.9229-3.13921.41258-.20234.61418.20871.0159 2.9668 1.09898 7.39232 1.95388 8.09206 3.54726 11.34094.16427.33493-.19655.51189-.7734.37931-1.78513-1.68359Z" fill="#f58908"
    id="g"
    stroke-width="2.24324" /></defs>
    <defs><clipPath clipPathUnits="userSpaceOnUse" id="a"><path style="marker:none" color="#000" d="M0 0h108v108H0z" fill="#ff0" stroke-dashoffset="1.0989" stroke-linecap="square"   stroke-width="20"/></clipPath>
        <clipPath clipPathUnits="userSpaceOnUse" id="i"><circle cx="2488.5886" cy="-16.82733" fill="#debe69" fill-opacity=".40425" r="338.22931" stroke-width="17.5203"/></clipPath>
        <filter color-interpolation-filters="sRGB" height="1.48878" id="c" width="1.48878" x="-.24439"
            y="-.24439"><feGaussianBlur stdDeviation="6.72744"/></filter>
        <filter color-interpolation-filters="sRGB" height="2.10691" id="j" width="1.57049" x="-.28524"
            y="-.48969"><feFlood flood-color="#000" flood-opacity=".49804" result="flood"/>
            <feGaussianBlur in="SourceGraphic" result="blur" stdDeviation="80" />
            <feOffset dy="50" in="blur" result="offset" />
            <feComposite in="flood" in2="offset" operator="in" result="comp1" />
            <feComposite in="SourceGraphic" in2="comp1" result="comp2" /></filter>
        <marker id="k" orient="auto" overflow="visible" refX="0" refY="0"><path d="M-5.23115-2.42024 1.32437-.00961l-6.55552 2.41063c1.0473-1.42323 1.04126-3.37047 0-4.82126z" fill-rule="evenodd" stroke="#000" stroke-linejoin="round" stroke-width=".375"/></marker></defs>
    <g clip-path="url(#a)" display="inline" id="h" transform="translate(216 -108)"><g transform="scale(1.08)"><use style="marker:none" color="#000" enable-background="accumulate" overflow="visible" stroke-width="0" xlink:href="#b"/><circle
        cx="50.92271" cy="50.10153" fill="#fff" fill-rule="evenodd" filter="url(#c)" r="33.03296" /></g>
        <use stroke-width="1pt" xlink:href="#d" />
        <use xlink:href="#e" />
        <use xlink:href="#f" />
        <use style="line-height:100%;-inkscape-font-specification:&quot;Euphoria Script&quot;" font-family="Euphoria Script" font-weight="400" letter-spacing="0"
            stroke-width="2.24324"
            transform="scale(1.08)"
            word-spacing="0" xlink:href="#g" />
        <g transform="matrix(1.08 0 0 1.08 -108 -108)"><use style="marker:none" color="#000" enable-background="accumulate" overflow="visible" stroke-width="0" xlink:href="#b"/>
            <circle cx="50.92271" cy="50.10153" fill="#fff" fill-rule="evenodd" filter="url(#c)"
                r="33.03296" /></g>
        <g transform="matrix(1.08 0 0 1.08 0 -108)"><use style="marker:none" color="#000" enable-background="accumulate" overflow="visible" stroke-width="0" xlink:href="#b"/>
            <circle cx="50.92271" cy="50.10153" fill="#fff" fill-rule="evenodd" filter="url(#c)"
                r="33.03296" /></g>
        <g transform="matrix(1.08 0 0 1.08 108 -108)"><use style="marker:none" color="#000" enable-background="accumulate" overflow="visible" stroke-width="0" xlink:href="#b"/>
            <circle cx="50.92271" cy="50.10153" fill="#fff" fill-rule="evenodd" filter="url(#c)"
                r="33.03296" /></g>
        <g transform="translate(-108) scale(1.08)"><use style="marker:none" color="#000" enable-background="accumulate" overflow="visible" stroke-width="0" xlink:href="#b"/>
            <circle cx="50.92271" cy="50.10153" fill="#fff" fill-rule="evenodd" filter="url(#c)"
                r="33.03296" /></g>
        <g transform="scale(1.08)"><use style="marker:none" color="#000" enable-background="accumulate" overflow="visible" stroke-width="0" xlink:href="#b"/>
            <circle cx="50.92271" cy="50.10153" fill="#fff" fill-rule="evenodd" filter="url(#c)"
                r="33.03296" /></g>
        <g transform="translate(108) scale(1.08)"><use style="marker:none" color="#000" enable-background="accumulate" overflow="visible" stroke-width="0" xlink:href="#b"/>
            <circle cx="50.92271" cy="50.10153" fill="#fff" fill-rule="evenodd" filter="url(#c)"
                r="33.03296" /></g>
        <g transform="matrix(1.08 0 0 1.08 -108 108)"><use style="marker:none" color="#000" enable-background="accumulate" overflow="visible" stroke-width="0" xlink:href="#b"/>
            <circle cx="50.92271" cy="50.10153" fill="#fff" fill-rule="evenodd" filter="url(#c)"
                r="33.03296" /></g>
        <g transform="matrix(1.08 0 0 1.08 0 108)"><use style="marker:none" color="#000" enable-background="accumulate" overflow="visible" stroke-width="0" xlink:href="#b"/>
            <circle cx="50.92271" cy="50.10153" fill="#fff" fill-rule="evenodd" filter="url(#c)"
                r="33.03296" /></g>
        <g transform="matrix(1.08 0 0 1.08 108 108)"><use style="marker:none" color="#000" enable-background="accumulate" overflow="visible" stroke-width="0" xlink:href="#b"/>
            <circle cx="50.92271" cy="50.10153" fill="#fff" fill-rule="evenodd" filter="url(#c)"
                r="33.03296" /></g>
        <path d="M-16.33612-87.08593h-5.3931v.34511h.16154c.72686 0 .80755.03694.80755.34526v3.92056c0 .3082-.08067.34497-.80755.34497h-.16153v.34512h5.50968l.17949-1.96036h-.39487c-.11645.5138-.32308.9691-.53832 1.18213-.27828.29361-.78975.43311-1.54345.43311h-.59231c-.26922 0-.49352-.04395-.57436-.11017-.06264-.04374-.0716-.08802-.0716-.24209v-1.87222h.17949c.54721 0 .77164.04395.95128.19803.23304.19116.32293.42609.34088.85905h.42172v-2.40805h-.42172c-.04493.71956-.40392 1.00586-1.25642 1.00586h-.21523v-1.67405c0-.31564.08078-.36715.5653-.36715h.46653c.78975 0 1.17557.0662 1.48084.27186.29609.19087.51133.60194.64602 1.26268h.38597l-.12579-1.87965Zm-11.90806 2.94418h1.01403c.8077 0 1.22942-.05141 1.58854-.19072.63696-.24983.99593-.7197.99593-1.2996 0-.55774-.31417-.98383-.90633-1.22608-.34993-.14665-.90634-.22778-1.5255-.22778h-3.14074v.34511h.16154c.72685 0 .80755.03694.80755.34526v3.92056c0 .3082-.08068.34497-.80755.34497h-.16154v.34512h3.0151v-.34512h-.23348c-.72685 0-.80755-.03672-.80755-.34497v-.21304Zm0-.34497v-1.8795c0-.33768.054-.3746.54752-.3746h.57435c.9332 0 1.37286.35985 1.37286 1.13807 0 .75633-.45761 1.11603-1.40876 1.11603zm-7.80699-2.7018h-.37677l-2.06411 4.28013c-.17934.38189-.21524.4334-.34978.55072-.14374.1395-.39502.22764-.6374.22764h-.03575v.34512h2.378v-.34512h-.17963c-.48433 0-.72671-.1395-.72671-.41837 0-.08823.027-.19086.08067-.30834l.29624-.64615h2.37798l.48462.98383c.0539.11017.07182.1614.07182.1983 0 .11733-.22458.19073-.55642.19073h-.37692v.34512h2.78191v-.34512h-.12564c-.44886 0-.5475-.05864-.75385-.46973l-2.28825-4.58876Zm-.43966 1.20403 1.01388 2.08512h-2.0101Zm-6.1919-1.15266h-.34101l-.35883.43325c-.6374-.38203-.98705-.49206-1.5884-.49206-.87044 0-1.5884.28645-2.1985.88095-.57437.55802-.8436 1.1747-.8436 1.93102 0 1.57862 1.26517 2.70925 3.0332 2.70925 1.43575 0 2.351-.69023 2.55748-1.92373l-.42173-.05864c-.08975.38919-.19757.6533-.35912.87365-.36773.50665-.94208.76377-1.66909.76377-1.32806 0-1.95611-.75647-1.95611-2.3348 0-.82987.1344-1.38775.43951-1.82829.27829-.41107.83455-.66818 1.40906-.66818.62806 0 1.18447.2717 1.5255.74173.17044.24223.30513.52854.51162 1.09385h.39442l-.1344-2.12175zm-8.98255.00756h-.33198l-.35897.44054c-.42187-.33037-.99608-.50665-1.6332-.50665-1.17557 0-1.96516.61668-1.96516 1.53469 0 .8001.48432 1.19659 1.80349 1.4756l.85248.17627c.6641.13936.72686.1541.9154.27172.26922.16868.41281.41092.41281.69738 0 .2936-.13469.53583-.40377.73429-.29623.21276-.59216.2936-1.08583.2936-.6641 0-1.13967-.16898-1.56139-.55073-.37693-.34525-.56531-.69022-.69986-1.25553h-.38597l.03585 2.09256h.35008l.40362-.49936c.60122.40378 1.10408.55073 1.88449.55073 1.31915 0 2.16274-.63127 2.16274-1.61539 0-.45514-.18853-.84418-.53832-1.12319-.24237-.19087-.5923-.31578-1.3104-.46257l-.96019-.19817c-.7985-.16884-1.17542-.45529-1.17542-.90313 0-.5138.51147-.8665 1.27422-.8665.6282 0 1.13952.22049 1.4985.63886.26033.30104.42172.60938.5386.98382h.38584l-.10768-1.90884zm-12.13234 2.94417v-2.20988c0-.30834.08057-.34526.80755-.34526h.17058v-.34511h-2.95235v.34511h.16154c.72685 0 .8074.03694.8074.34526v3.92056c0 .3082-.08056.34497-.8074.34497h-.16154v.34512h2.95235v-.34512h-.17058c-.727 0-.80755-.03682-.80755-.34497v-1.14536l1.04088-.85906 1.5614 1.87222c.14374.17612.17949.23494.17949.30848 0 .11733-.1703.1687-.61012.1687h-.27827v.3451h3.06894v-.3451h-.17044c-.49351 0-.6193-.05141-.87948-.36701l-2.17152-2.56244 1.33711-1.09386c.43063-.37443.978-.58749 1.51646-.58749v-.34511h-2.76397v.34511h.22458c.41283 0 .58312.0662.58312.22035 0 .1027-.1795.31564-.43968.52854zm-10.03263-2.90025h-1.84858v.34511h.22444c.45761 0 .6641.05876.8255.24253v3.12016c0 1.00587-.1795 1.21877-1.04089 1.2481v.34512h2.55762v-.34512c-.85278-.02937-1.03212-.24223-1.03212-1.2481v-2.72383l4.00243 4.41992h.37678v-3.81053c0-1.00572.17934-1.21877 1.04088-1.24825v-.34511h-2.55748v.34511c.8525.02949 1.03198.24253 1.03198 1.24825v2.30531Zm-5.83276.90313v-.21276c0-.30834.08067-.34526.7985-.34526h.17948v-.34511h-2.97015v.34511h.17948c.72685 0 .80755.03694.80755.34526v3.92056c0 .3082-.08067.34497-.80755.34497h-.17948v.34512h2.97015v-.34512h-.17949c-.7178 0-.7985-.03682-.7985-.34497v-.21304z"
            stroke-width="1pt" />
        <path
            d="m-54.67363-26.43134-16.04683 16.42071c-5.4218 6.71425 3.6898 5.93306 7.59579 7.86695 1.40114 1.4322-5.37044 2.48928-3.9693 3.92276 1.40113 1.4322 8.47254 2.75919 9.87607 4.19148 1.40115 1.4322-2.86798 2.95154-1.46684 4.38372 1.40114 1.4322 4.64181.0756 5.2486 3.3816.43242 2.3627 5.8399 1.0154 8.4845-.91974 1.40115-1.43337-2.68044-1.29837-1.2793-2.73056 3.48433-3.56324 6.72858-1.29492 7.92068-4.86518.5889-1.7643-5.12915-2.71988-3.72562-4.15206 4.03141-2.35438 17.9652-3.88691 11.35366-10.49844l-16.63333-17.00124c-2.03422-1.953-5.42897-1.9745-7.35808 0zM-36.24139 5.2204c0 .81464 6.00233 1.3486 6.00233-.19235-.85525-2.47504-5.2928-2.30775-6.00233.19235zm-27.03856 4.32885c1.42144 1.22915 3.61693-.30585 4.27509-2.02111-1.37725-1.82995-6.5327.06588-4.2751 2.02111zm26.28603-2.6554c-1.83235 1.64366.20545 3.31118 2.01153 2.24921.40254-.40845-.0108-1.84064-2.01153-2.2492z" />
        <path d="M-58.51392-1.25498C-58.0851-.98861-51.599.32897-50.0139.59173c.54946.11589.16005.68202-.59725 1.06423-1.70813.45393-9.99314-2.91094-7.90277-2.91094zm10.22845-24.02486 6.34874 6.44788c.60202.61517.59366 1.80727.2568 2.15009l-3.15226-2.52158-.61994 3.734-2.63387-1.3904-4.21775 2.66491-1.39637-5.6177-2.26594 3.92033h-3.46404c-1.4119 0-1.57792-1.79174-.29504-3.07463 2.24087-2.41885 4.81262-4.88429 6.21017-6.3129 1.40473-1.43579 3.85225-1.39517 5.2295 0z"
            fill="#fff" />
        <use style="line-height:100%;-inkscape-font-specification:&quot;Euphoria Script&quot;" font-family="Euphoria Script" font-weight="400" letter-spacing="0"
            stroke-width="2.24324"
            transform="matrix(1.08 0 0 1.08 -108 -108)"
            word-spacing="0" xlink:href="#g" />
        <path d="M91.66388-87.08593h-5.3931v.34511h.16154c.72686 0 .80755.03694.80755.34526v3.92056c0 .3082-.08067.34497-.80755.34497h-.16153v.34512h5.50968l.17949-1.96036h-.39487c-.11645.5138-.32308.9691-.53832 1.18213-.27828.29361-.78975.43311-1.54345.43311h-.59231c-.26922 0-.49352-.04395-.57436-.11017-.06264-.04374-.0716-.08802-.0716-.24209v-1.87222h.17949c.54721 0 .77164.04395.95128.19803.23304.19116.32293.42609.34088.85905h.42172v-2.40805h-.42172c-.04493.71956-.40392 1.00586-1.25642 1.00586h-.21523v-1.67405c0-.31564.08078-.36715.5653-.36715h.46653c.78975 0 1.17557.0662 1.48084.27186.29609.19087.51133.60194.64602 1.26268h.38597l-.12579-1.87965Zm-11.90806 2.94418h1.01403c.8077 0 1.22942-.05141 1.58854-.19072.63696-.24983.99593-.7197.99593-1.2996 0-.55774-.31417-.98383-.90633-1.22608-.34993-.14665-.90634-.22778-1.5255-.22778h-3.14074v.34511h.16154c.72685 0 .80755.03694.80755.34526v3.92056c0 .3082-.08068.34497-.80755.34497h-.16154v.34512h3.0151v-.34512h-.23348c-.72685 0-.80755-.03672-.80755-.34497v-.21304Zm0-.34497v-1.8795c0-.33768.054-.3746.54752-.3746h.57435c.9332 0 1.37286.35985 1.37286 1.13807 0 .75633-.45761 1.11603-1.40876 1.11603zm-7.80699-2.7018h-.37677l-2.06411 4.28013c-.17934.38189-.21524.4334-.34978.55072-.14374.1395-.39502.22764-.6374.22764h-.03575v.34512h2.378v-.34512h-.17963c-.48433 0-.72671-.1395-.72671-.41837 0-.08823.027-.19086.08067-.30834l.29624-.64615h2.37798l.48462.98383c.0539.11017.07182.1614.07182.1983 0 .11733-.22458.19073-.55642.19073h-.37692v.34512h2.78191v-.34512h-.12564c-.44886 0-.5475-.05864-.75385-.46973l-2.28825-4.58876Zm-.43966 1.20403 1.01388 2.08512h-2.0101Zm-6.1919-1.15266h-.34101l-.35883.43325c-.6374-.38203-.98705-.49206-1.5884-.49206-.87044 0-1.5884.28645-2.1985.88095-.57437.55802-.8436 1.1747-.8436 1.93102 0 1.57862 1.26517 2.70925 3.0332 2.70925 1.43575 0 2.351-.69023 2.55748-1.92373l-.42173-.05864c-.08975.38919-.19757.6533-.35912.87365-.36773.50665-.94208.76377-1.66909.76377-1.32806 0-1.95611-.75647-1.95611-2.3348 0-.82987.1344-1.38775.43951-1.82829.27829-.41107.83455-.66818 1.40906-.66818.62806 0 1.18447.2717 1.5255.74173.17044.24223.30513.52854.51162 1.09385h.39442l-.1344-2.12175zm-8.98255.00756h-.33198l-.35897.44054c-.42187-.33037-.99608-.50665-1.6332-.50665-1.17557 0-1.96516.61668-1.96516 1.53469 0 .8001.48432 1.19659 1.80349 1.4756l.85248.17627c.6641.13936.72686.1541.9154.27172.26922.16868.41281.41092.41281.69738 0 .2936-.13469.53583-.40377.73429-.29623.21276-.59216.2936-1.08583.2936-.6641 0-1.13967-.16898-1.56139-.55073-.37693-.34525-.56531-.69022-.69986-1.25553h-.38597l.03585 2.09256h.35008l.40362-.49936c.60122.40378 1.10408.55073 1.88449.55073 1.31915 0 2.16274-.63127 2.16274-1.61539 0-.45514-.18853-.84418-.53832-1.12319-.24237-.19087-.5923-.31578-1.3104-.46257l-.96019-.19817c-.7985-.16884-1.17542-.45529-1.17542-.90313 0-.5138.51147-.8665 1.27422-.8665.6282 0 1.13952.22049 1.4985.63886.26033.30104.42172.60938.5386.98382h.38584l-.10768-1.90884zm-12.13234 2.94417v-2.20988c0-.30834.08057-.34526.80755-.34526h.17058v-.34511h-2.95235v.34511h.16154c.72685 0 .8074.03694.8074.34526v3.92056c0 .3082-.08056.34497-.8074.34497h-.16154v.34512h2.95235v-.34512h-.17058c-.727 0-.80755-.03682-.80755-.34497v-1.14536l1.04088-.85906 1.5614 1.87222c.14374.17612.17949.23494.17949.30848 0 .11733-.1703.1687-.61012.1687h-.27827v.3451h3.06894v-.3451h-.17044c-.49351 0-.6193-.05141-.87948-.36701l-2.17152-2.56244 1.33711-1.09386c.43063-.37443.978-.58749 1.51646-.58749v-.34511h-2.76397v.34511h.22458c.41283 0 .58312.0662.58312.22035 0 .1027-.1795.31564-.43968.52854zm-10.03263-2.90025h-1.84858v.34511h.22444c.45761 0 .6641.05876.8255.24253v3.12016c0 1.00587-.1795 1.21877-1.04089 1.2481v.34512h2.55762v-.34512c-.85278-.02937-1.03212-.24223-1.03212-1.2481v-2.72383l4.00243 4.41992h.37678v-3.81053c0-1.00572.17934-1.21877 1.04088-1.24825v-.34511h-2.55748v.34511c.8525.02949 1.03198.24253 1.03198 1.24825v2.30531Zm-5.83276.90313v-.21276c0-.30834.08067-.34526.7985-.34526h.17948v-.34511h-2.97015v.34511h.17948c.72685 0 .80755.03694.80755.34526v3.92056c0 .3082-.08067.34497-.80755.34497h-.17948v.34512h2.97015v-.34512h-.17949c-.7178 0-.7985-.03682-.7985-.34497v-.21304z"
            stroke-width="1pt" />
        <path
            d="M53.32637-26.43134 37.27954-10.01063c-5.4218 6.71425 3.6898 5.93306 7.59579 7.86695 1.40114 1.4322-5.37044 2.48928-3.9693 3.92276 1.40113 1.4322 8.47254 2.75919 9.87607 4.19148 1.40115 1.4322-2.86798 2.95154-1.46684 4.38372 1.40114 1.4322 4.64181.0756 5.2486 3.3816.43242 2.3627 5.8399 1.0154 8.4845-.91974 1.40115-1.43337-2.68044-1.29837-1.2793-2.73056 3.48433-3.56324 6.72858-1.29492 7.92068-4.86518.5889-1.7643-5.12915-2.71988-3.72562-4.15206 4.03141-2.35438 17.9652-3.88691 11.35366-10.49844L60.68445-26.43134c-2.03422-1.953-5.42897-1.9745-7.35808 0zM71.75861 5.2204c0 .81464 6.00233 1.3486 6.00233-.19235-.85525-2.47504-5.2928-2.30775-6.00233.19235zM44.72005 9.54925c1.42144 1.22915 3.61693-.30585 4.27509-2.02111-1.37725-1.82995-6.5327.06588-4.2751 2.02111zm26.28603-2.6554c-1.83235 1.64366.20545 3.31118 2.01153 2.24921.40254-.40845-.0108-1.84064-2.01153-2.2492z" />
        <path d="M49.48608-1.25498C49.9149-.98861 56.401.32897 57.9861.59173c.54946.11589.16005.68202-.59725 1.06423-1.70813.45393-9.99314-2.91094-7.90277-2.91094zm10.22845-24.02486 6.34874 6.44788c.60202.61517.59366 1.80727.2568 2.15009l-3.15226-2.52158-.61994 3.734-2.63387-1.3904-4.21775 2.66491-1.39637-5.6177-2.26594 3.92033H48.5699c-1.4119 0-1.57792-1.79174-.29504-3.07463 2.24087-2.41885 4.81262-4.88429 6.21017-6.3129 1.40473-1.43579 3.85225-1.39517 5.2295 0z"
            fill="#fff" />
        <use style="line-height:100%;-inkscape-font-specification:&quot;Euphoria Script&quot;" font-family="Euphoria Script" font-weight="400" letter-spacing="0"
            stroke-width="2.24324"
            transform="matrix(1.08 0 0 1.08 0 -108)"
            word-spacing="0" xlink:href="#g" />
        <path d="M199.66388-87.08593h-5.3931v.34511h.16154c.72686 0 .80755.03694.80755.34526v3.92056c0 .3082-.08067.34497-.80755.34497h-.16153v.34512h5.50968l.17949-1.96036h-.39487c-.11645.5138-.32308.9691-.53832 1.18213-.27828.29361-.78975.43311-1.54345.43311h-.59231c-.26922 0-.49352-.04395-.57436-.11017-.06264-.04374-.0716-.08802-.0716-.24209v-1.87222h.17949c.54721 0 .77164.04395.95128.19803.23304.19116.32293.42609.34088.85905h.42172v-2.40805h-.42172c-.04493.71956-.40392 1.00586-1.25642 1.00586h-.21523v-1.67405c0-.31564.08078-.36715.5653-.36715h.46653c.78975 0 1.17557.0662 1.48084.27186.29609.19087.51133.60194.64602 1.26268h.38597l-.12579-1.87965Zm-11.90806 2.94418h1.01403c.8077 0 1.22942-.05141 1.58854-.19072.63696-.24983.99593-.7197.99593-1.2996 0-.55774-.31417-.98383-.90633-1.22608-.34993-.14665-.90634-.22778-1.5255-.22778h-3.14074v.34511h.16154c.72685 0 .80755.03694.80755.34526v3.92056c0 .3082-.08068.34497-.80755.34497h-.16154v.34512h3.0151v-.34512h-.23348c-.72685 0-.80755-.03672-.80755-.34497v-.21304Zm0-.34497v-1.8795c0-.33768.054-.3746.54752-.3746h.57435c.9332 0 1.37286.35985 1.37286 1.13807 0 .75633-.45761 1.11603-1.40876 1.11603zm-7.80699-2.7018h-.37677l-2.06411 4.28013c-.17934.38189-.21524.4334-.34978.55072-.14374.1395-.39502.22764-.6374.22764h-.03575v.34512h2.378v-.34512h-.17963c-.48433 0-.72671-.1395-.72671-.41837 0-.08823.027-.19086.08067-.30834l.29624-.64615h2.37798l.48462.98383c.0539.11017.07182.1614.07182.1983 0 .11733-.22458.19073-.55642.19073h-.37692v.34512h2.78191v-.34512h-.12564c-.44886 0-.5475-.05864-.75385-.46973l-2.28825-4.58876Zm-.43966 1.20403 1.01388 2.08512h-2.0101Zm-6.1919-1.15266h-.34101l-.35883.43325c-.6374-.38203-.98705-.49206-1.5884-.49206-.87044 0-1.5884.28645-2.1985.88095-.57437.55802-.8436 1.1747-.8436 1.93102 0 1.57862 1.26517 2.70925 3.0332 2.70925 1.43575 0 2.351-.69023 2.55748-1.92373l-.42173-.05864c-.08975.38919-.19757.6533-.35912.87365-.36773.50665-.94208.76377-1.66909.76377-1.32806 0-1.95611-.75647-1.95611-2.3348 0-.82987.1344-1.38775.43951-1.82829.27829-.41107.83455-.66818 1.40906-.66818.62806 0 1.18447.2717 1.5255.74173.17044.24223.30513.52854.51162 1.09385h.39442l-.1344-2.12175zm-8.98255.00756h-.33198l-.35897.44054c-.42187-.33037-.99608-.50665-1.6332-.50665-1.17557 0-1.96516.61668-1.96516 1.53469 0 .8001.48432 1.19659 1.80349 1.4756l.85248.17627c.6641.13936.72686.1541.9154.27172.26922.16868.41281.41092.41281.69738 0 .2936-.13469.53583-.40377.73429-.29623.21276-.59216.2936-1.08583.2936-.6641 0-1.13967-.16898-1.56139-.55073-.37693-.34525-.56531-.69022-.69986-1.25553h-.38597l.03585 2.09256h.35008l.40362-.49936c.60122.40378 1.10408.55073 1.88449.55073 1.31915 0 2.16274-.63127 2.16274-1.61539 0-.45514-.18853-.84418-.53832-1.12319-.24237-.19087-.5923-.31578-1.3104-.46257l-.96019-.19817c-.7985-.16884-1.17542-.45529-1.17542-.90313 0-.5138.51147-.8665 1.27422-.8665.6282 0 1.13952.22049 1.4985.63886.26033.30104.42172.60938.5386.98382h.38584l-.10768-1.90884zm-12.13234 2.94417v-2.20988c0-.30834.08057-.34526.80755-.34526h.17058v-.34511h-2.95235v.34511h.16154c.72685 0 .8074.03694.8074.34526v3.92056c0 .3082-.08056.34497-.8074.34497h-.16154v.34512h2.95235v-.34512h-.17058c-.727 0-.80755-.03682-.80755-.34497v-1.14536l1.04088-.85906 1.5614 1.87222c.14374.17612.17949.23494.17949.30848 0 .11733-.1703.1687-.61012.1687h-.27827v.3451h3.06894v-.3451h-.17044c-.49351 0-.6193-.05141-.87948-.36701l-2.17152-2.56244 1.33711-1.09386c.43063-.37443.978-.58749 1.51646-.58749v-.34511h-2.76397v.34511h.22458c.41283 0 .58312.0662.58312.22035 0 .1027-.1795.31564-.43968.52854zm-10.03263-2.90025h-1.84858v.34511h.22444c.45761 0 .6641.05876.8255.24253v3.12016c0 1.00587-.1795 1.21877-1.04089 1.2481v.34512h2.55762v-.34512c-.85278-.02937-1.03212-.24223-1.03212-1.2481v-2.72383l4.00243 4.41992h.37678v-3.81053c0-1.00572.17934-1.21877 1.04088-1.24825v-.34511h-2.55748v.34511c.8525.02949 1.03198.24253 1.03198 1.24825v2.30531Zm-5.83276.90313v-.21276c0-.30834.08067-.34526.7985-.34526h.17948v-.34511h-2.97015v.34511h.17948c.72685 0 .80755.03694.80755.34526v3.92056c0 .3082-.08067.34497-.80755.34497h-.17948v.34512h2.97015v-.34512h-.17949c-.7178 0-.7985-.03682-.7985-.34497v-.21304z"
            stroke-width="1pt" />
        <path
            d="m161.32637-26.43134-16.04683 16.42071c-5.4218 6.71425 3.6898 5.93306 7.59579 7.86695 1.40114 1.4322-5.37044 2.48928-3.9693 3.92276 1.40113 1.4322 8.47254 2.75919 9.87607 4.19148 1.40115 1.4322-2.86798 2.95154-1.46684 4.38372 1.40114 1.4322 4.64181.0756 5.2486 3.3816.43242 2.3627 5.8399 1.0154 8.4845-.91974 1.40115-1.43337-2.68044-1.29837-1.2793-2.73056 3.48433-3.56324 6.72858-1.29492 7.92068-4.86518.5889-1.7643-5.12915-2.71988-3.72562-4.15206 4.03141-2.35438 17.9652-3.88691 11.35366-10.49844l-16.63333-17.00124c-2.03422-1.953-5.42897-1.9745-7.35808 0zM179.75861 5.2204c0 .81464 6.00233 1.3486 6.00233-.19235-.85525-2.47504-5.2928-2.30775-6.00233.19235zm-27.03856 4.32885c1.42144 1.22915 3.61693-.30585 4.27509-2.02111-1.37725-1.82995-6.5327.06588-4.2751 2.02111zm26.28603-2.6554c-1.83235 1.64366.20545 3.31118 2.01153 2.24921.40254-.40845-.0108-1.84064-2.01153-2.2492z" />
        <path d="M157.48608-1.25498c.42882.26637 6.91492 1.58395 8.50002 1.84671.54946.11589.16005.68202-.59725 1.06423-1.70813.45393-9.99314-2.91094-7.90277-2.91094zm10.22845-24.02486 6.34874 6.44788c.60202.61517.59366 1.80727.2568 2.15009l-3.15226-2.52158-.61994 3.734-2.63387-1.3904-4.21775 2.66491-1.39637-5.6177-2.26594 3.92033h-3.46404c-1.4119 0-1.57792-1.79174-.29504-3.07463 2.24087-2.41885 4.81262-4.88429 6.21017-6.3129 1.40473-1.43579 3.85225-1.39517 5.2295 0z"
            fill="#fff" />
        <use style="line-height:100%;-inkscape-font-specification:&quot;Euphoria Script&quot;" font-family="Euphoria Script" font-weight="400" letter-spacing="0"
            stroke-width="2.24324"
            transform="matrix(1.08 0 0 1.08 108 -108)"
            word-spacing="0" xlink:href="#g" />
        <path d="M-16.33612 20.91407h-5.3931v.34511h.16154c.72686 0 .80755.03694.80755.34526V25.525c0 .3082-.08067.34497-.80755.34497h-.16153v.34512h5.50968l.17949-1.96036h-.39487c-.11645.5138-.32308.9691-.53832 1.18213-.27828.29361-.78975.43311-1.54345.43311h-.59231c-.26922 0-.49352-.04395-.57436-.11017-.06264-.04374-.0716-.08802-.0716-.24209V23.6455h.17949c.54721 0 .77164.04395.95128.19803.23304.19116.32293.42609.34088.85905h.42172v-2.40805h-.42172c-.04493.71956-.40392 1.00586-1.25642 1.00586h-.21523v-1.67405c0-.31564.08078-.36715.5653-.36715h.46653c.78975 0 1.17557.0662 1.48084.27186.29609.19087.51133.60194.64602 1.26268h.38597l-.12579-1.87965Zm-11.90806 2.94418h1.01403c.8077 0 1.22942-.05141 1.58854-.19072.63696-.24983.99593-.7197.99593-1.2996 0-.55774-.31417-.98383-.90633-1.22608-.34993-.14665-.90634-.22778-1.5255-.22778h-3.14074v.34511h.16154c.72685 0 .80755.03694.80755.34526V25.525c0 .3082-.08068.34497-.80755.34497h-.16154v.34512h3.0151v-.34512h-.23348c-.72685 0-.80755-.03672-.80755-.34497v-.21304Zm0-.34497v-1.8795c0-.33768.054-.3746.54752-.3746h.57435c.9332 0 1.37286.35985 1.37286 1.13807 0 .75633-.45761 1.11603-1.40876 1.11603zm-7.80699-2.7018h-.37677l-2.06411 4.28013c-.17934.38189-.21524.4334-.34978.55072-.14374.1395-.39502.22764-.6374.22764h-.03575v.34512h2.378v-.34512h-.17963c-.48433 0-.72671-.1395-.72671-.41837 0-.08823.027-.19086.08067-.30834l.29624-.64615h2.37798l.48462.98383c.0539.11017.07182.1614.07182.1983 0 .11733-.22458.19073-.55642.19073h-.37692v.34512h2.78191v-.34512h-.12564c-.44886 0-.5475-.05864-.75385-.46973l-2.28825-4.58876Zm-.43966 1.20403 1.01388 2.08512h-2.0101Zm-6.1919-1.15266h-.34101l-.35883.43325c-.6374-.38203-.98705-.49206-1.5884-.49206-.87044 0-1.5884.28645-2.1985.88095-.57437.55802-.8436 1.1747-.8436 1.93102 0 1.57862 1.26517 2.70925 3.0332 2.70925 1.43575 0 2.351-.69023 2.55748-1.92373l-.42173-.05864c-.08975.38919-.19757.6533-.35912.87365-.36773.50665-.94208.76377-1.66909.76377-1.32806 0-1.95611-.75647-1.95611-2.3348 0-.82987.1344-1.38775.43951-1.82829.27829-.41107.83455-.66818 1.40906-.66818.62806 0 1.18447.2717 1.5255.74173.17044.24223.30513.52854.51162 1.09385h.39442l-.1344-2.12175zm-8.98255.00756h-.33198l-.35897.44054c-.42187-.33037-.99608-.50665-1.6332-.50665-1.17557 0-1.96516.61668-1.96516 1.53469 0 .8001.48432 1.19659 1.80349 1.4756l.85248.17627c.6641.13936.72686.1541.9154.27172.26922.16868.41281.41092.41281.69738 0 .2936-.13469.53583-.40377.73429-.29623.21276-.59216.2936-1.08583.2936-.6641 0-1.13967-.16898-1.56139-.55073-.37693-.34525-.56531-.69022-.69986-1.25553h-.38597l.03585 2.09256h.35008l.40362-.49936c.60122.40378 1.10408.55073 1.88449.55073 1.31915 0 2.16274-.63127 2.16274-1.61539 0-.45514-.18853-.84418-.53832-1.12319-.24237-.19087-.5923-.31578-1.3104-.46257l-.96019-.19817c-.7985-.16884-1.17542-.45529-1.17542-.90313 0-.5138.51147-.8665 1.27422-.8665.6282 0 1.13952.22049 1.4985.63886.26033.30104.42172.60938.5386.98382h.38584l-.10768-1.90884zm-12.13234 2.94417V21.6047c0-.30834.08057-.34526.80755-.34526h.17058v-.34511h-2.95235v.34511h.16154c.72685 0 .8074.03694.8074.34526v3.92056c0 .3082-.08056.34497-.8074.34497h-.16154v.34512h2.95235v-.34512h-.17058c-.727 0-.80755-.03682-.80755-.34497V24.3799l1.04088-.85906 1.5614 1.87222c.14374.17612.17949.23494.17949.30848 0 .11733-.1703.1687-.61012.1687h-.27827v.3451h3.06894v-.3451h-.17044c-.49351 0-.6193-.05141-.87948-.36701l-2.17152-2.56244 1.33711-1.09386c.43063-.37443.978-.58749 1.51646-.58749v-.34511h-2.76397v.34511h.22458c.41283 0 .58312.0662.58312.22035 0 .1027-.1795.31564-.43968.52854zm-10.03263-2.90025h-1.84858v.34511h.22444c.45761 0 .6641.05876.8255.24253v3.12016c0 1.00587-.1795 1.21877-1.04089 1.2481v.34512h2.55762v-.34512c-.85278-.02937-1.03212-.24223-1.03212-1.2481V21.8983l4.00243 4.41992h.37678v-3.81053c0-1.00572.17934-1.21877 1.04088-1.24825v-.34511h-2.55748v.34511c.8525.02949 1.03198.24253 1.03198 1.24825V24.813Zm-5.83276.90313v-.21276c0-.30834.08067-.34526.7985-.34526h.17948v-.34511h-2.97015v.34511h.17948c.72685 0 .80755.03694.80755.34526v3.92056c0 .3082-.08067.34497-.80755.34497h-.17948v.34512h2.97015v-.34512h-.17949c-.7178 0-.7985-.03682-.7985-.34497v-.21304z"
            stroke-width="1pt" />
        <path
            d="m-54.67363 81.56866-16.04683 16.42071c-5.4218 6.71425 3.6898 5.93306 7.59579 7.86695 1.40114 1.4322-5.37044 2.48928-3.9693 3.92276 1.40113 1.4322 8.47254 2.75919 9.87607 4.19148 1.40115 1.4322-2.86798 2.95154-1.46684 4.38372 1.40114 1.4322 4.64181.0756 5.2486 3.3816.43242 2.3627 5.8399 1.0154 8.4845-.91974 1.40115-1.43337-2.68044-1.29837-1.2793-2.73056 3.48433-3.56324 6.72858-1.29492 7.92068-4.86518.5889-1.7643-5.12915-2.71988-3.72562-4.15206 4.03141-2.35438 17.9652-3.88691 11.35366-10.49844l-16.63333-17.00124c-2.03422-1.953-5.42897-1.9745-7.35808 0zm18.43224 31.65174c0 .81464 6.00233 1.3486 6.00233-.19235-.85525-2.47504-5.2928-2.30775-6.00233.19235zm-27.03856 4.32885c1.42144 1.22915 3.61693-.30585 4.27509-2.02111-1.37725-1.82995-6.5327.06588-4.2751 2.02111zm26.28603-2.6554c-1.83235 1.64366.20545 3.31118 2.01153 2.24921.40254-.40845-.0108-1.84064-2.01153-2.2492z" />
        <path d="M-58.51392 106.74502c.42882.26637 6.91492 1.58395 8.50002 1.84671.54946.11589.16005.68202-.59725 1.06423-1.70813.45393-9.99314-2.91094-7.90277-2.91094zm10.22845-24.02486 6.34874 6.44788c.60202.61517.59366 1.80727.2568 2.15009l-3.15226-2.52158-.61994 3.734-2.63387-1.3904-4.21775 2.66491-1.39637-5.6177-2.26594 3.92033h-3.46404c-1.4119 0-1.57792-1.79174-.29504-3.07463 2.24087-2.41885 4.81262-4.88429 6.21017-6.3129 1.40473-1.43579 3.85225-1.39517 5.2295 0z"
            fill="#fff" />
        <use style="line-height:100%;-inkscape-font-specification:&quot;Euphoria Script&quot;" font-family="Euphoria Script" font-weight="400" letter-spacing="0"
            stroke-width="2.24324"
            transform="translate(-108) scale(1.08)"
            word-spacing="0" xlink:href="#g" />
        <use stroke-width="1pt" xlink:href="#d" />
        <use xlink:href="#e" />
        <use xlink:href="#f" />
        <use style="line-height:100%;-inkscape-font-specification:&quot;Euphoria Script&quot;" font-family="Euphoria Script" font-weight="400" letter-spacing="0"
            stroke-width="2.24324"
            transform="scale(1.08)"
            word-spacing="0" xlink:href="#g" />
        <path d="M199.66388 20.91407h-5.3931v.34511h.16154c.72686 0 .80755.03694.80755.34526V25.525c0 .3082-.08067.34497-.80755.34497h-.16153v.34512h5.50968l.17949-1.96036h-.39487c-.11645.5138-.32308.9691-.53832 1.18213-.27828.29361-.78975.43311-1.54345.43311h-.59231c-.26922 0-.49352-.04395-.57436-.11017-.06264-.04374-.0716-.08802-.0716-.24209V23.6455h.17949c.54721 0 .77164.04395.95128.19803.23304.19116.32293.42609.34088.85905h.42172v-2.40805h-.42172c-.04493.71956-.40392 1.00586-1.25642 1.00586h-.21523v-1.67405c0-.31564.08078-.36715.5653-.36715h.46653c.78975 0 1.17557.0662 1.48084.27186.29609.19087.51133.60194.64602 1.26268h.38597l-.12579-1.87965Zm-11.90806 2.94418h1.01403c.8077 0 1.22942-.05141 1.58854-.19072.63696-.24983.99593-.7197.99593-1.2996 0-.55774-.31417-.98383-.90633-1.22608-.34993-.14665-.90634-.22778-1.5255-.22778h-3.14074v.34511h.16154c.72685 0 .80755.03694.80755.34526V25.525c0 .3082-.08068.34497-.80755.34497h-.16154v.34512h3.0151v-.34512h-.23348c-.72685 0-.80755-.03672-.80755-.34497v-.21304Zm0-.34497v-1.8795c0-.33768.054-.3746.54752-.3746h.57435c.9332 0 1.37286.35985 1.37286 1.13807 0 .75633-.45761 1.11603-1.40876 1.11603zm-7.80699-2.7018h-.37677l-2.06411 4.28013c-.17934.38189-.21524.4334-.34978.55072-.14374.1395-.39502.22764-.6374.22764h-.03575v.34512h2.378v-.34512h-.17963c-.48433 0-.72671-.1395-.72671-.41837 0-.08823.027-.19086.08067-.30834l.29624-.64615h2.37798l.48462.98383c.0539.11017.07182.1614.07182.1983 0 .11733-.22458.19073-.55642.19073h-.37692v.34512h2.78191v-.34512h-.12564c-.44886 0-.5475-.05864-.75385-.46973l-2.28825-4.58876Zm-.43966 1.20403 1.01388 2.08512h-2.0101Zm-6.1919-1.15266h-.34101l-.35883.43325c-.6374-.38203-.98705-.49206-1.5884-.49206-.87044 0-1.5884.28645-2.1985.88095-.57437.55802-.8436 1.1747-.8436 1.93102 0 1.57862 1.26517 2.70925 3.0332 2.70925 1.43575 0 2.351-.69023 2.55748-1.92373l-.42173-.05864c-.08975.38919-.19757.6533-.35912.87365-.36773.50665-.94208.76377-1.66909.76377-1.32806 0-1.95611-.75647-1.95611-2.3348 0-.82987.1344-1.38775.43951-1.82829.27829-.41107.83455-.66818 1.40906-.66818.62806 0 1.18447.2717 1.5255.74173.17044.24223.30513.52854.51162 1.09385h.39442l-.1344-2.12175zm-8.98255.00756h-.33198l-.35897.44054c-.42187-.33037-.99608-.50665-1.6332-.50665-1.17557 0-1.96516.61668-1.96516 1.53469 0 .8001.48432 1.19659 1.80349 1.4756l.85248.17627c.6641.13936.72686.1541.9154.27172.26922.16868.41281.41092.41281.69738 0 .2936-.13469.53583-.40377.73429-.29623.21276-.59216.2936-1.08583.2936-.6641 0-1.13967-.16898-1.56139-.55073-.37693-.34525-.56531-.69022-.69986-1.25553h-.38597l.03585 2.09256h.35008l.40362-.49936c.60122.40378 1.10408.55073 1.88449.55073 1.31915 0 2.16274-.63127 2.16274-1.61539 0-.45514-.18853-.84418-.53832-1.12319-.24237-.19087-.5923-.31578-1.3104-.46257l-.96019-.19817c-.7985-.16884-1.17542-.45529-1.17542-.90313 0-.5138.51147-.8665 1.27422-.8665.6282 0 1.13952.22049 1.4985.63886.26033.30104.42172.60938.5386.98382h.38584l-.10768-1.90884zm-12.13234 2.94417V21.6047c0-.30834.08057-.34526.80755-.34526h.17058v-.34511h-2.95235v.34511h.16154c.72685 0 .8074.03694.8074.34526v3.92056c0 .3082-.08056.34497-.8074.34497h-.16154v.34512h2.95235v-.34512h-.17058c-.727 0-.80755-.03682-.80755-.34497V24.3799l1.04088-.85906 1.5614 1.87222c.14374.17612.17949.23494.17949.30848 0 .11733-.1703.1687-.61012.1687h-.27827v.3451h3.06894v-.3451h-.17044c-.49351 0-.6193-.05141-.87948-.36701l-2.17152-2.56244 1.33711-1.09386c.43063-.37443.978-.58749 1.51646-.58749v-.34511h-2.76397v.34511h.22458c.41283 0 .58312.0662.58312.22035 0 .1027-.1795.31564-.43968.52854zm-10.03263-2.90025h-1.84858v.34511h.22444c.45761 0 .6641.05876.8255.24253v3.12016c0 1.00587-.1795 1.21877-1.04089 1.2481v.34512h2.55762v-.34512c-.85278-.02937-1.03212-.24223-1.03212-1.2481V21.8983l4.00243 4.41992h.37678v-3.81053c0-1.00572.17934-1.21877 1.04088-1.24825v-.34511h-2.55748v.34511c.8525.02949 1.03198.24253 1.03198 1.24825V24.813Zm-5.83276.90313v-.21276c0-.30834.08067-.34526.7985-.34526h.17948v-.34511h-2.97015v.34511h.17948c.72685 0 .80755.03694.80755.34526v3.92056c0 .3082-.08067.34497-.80755.34497h-.17948v.34512h2.97015v-.34512h-.17949c-.7178 0-.7985-.03682-.7985-.34497v-.21304z"
            stroke-width="1pt" />
        <path
            d="m161.32637 81.56866-16.04683 16.42071c-5.4218 6.71425 3.6898 5.93306 7.59579 7.86695 1.40114 1.4322-5.37044 2.48928-3.9693 3.92276 1.40113 1.4322 8.47254 2.75919 9.87607 4.19148 1.40115 1.4322-2.86798 2.95154-1.46684 4.38372 1.40114 1.4322 4.64181.0756 5.2486 3.3816.43242 2.3627 5.8399 1.0154 8.4845-.91974 1.40115-1.43337-2.68044-1.29837-1.2793-2.73056 3.48433-3.56324 6.72858-1.29492 7.92068-4.86518.5889-1.7643-5.12915-2.71988-3.72562-4.15206 4.03141-2.35438 17.9652-3.88691 11.35366-10.49844l-16.63333-17.00124c-2.03422-1.953-5.42897-1.9745-7.35808 0zm18.43224 31.65174c0 .81464 6.00233 1.3486 6.00233-.19235-.85525-2.47504-5.2928-2.30775-6.00233.19235zm-27.03856 4.32885c1.42144 1.22915 3.61693-.30585 4.27509-2.02111-1.37725-1.82995-6.5327.06588-4.2751 2.02111zm26.28603-2.6554c-1.83235 1.64366.20545 3.31118 2.01153 2.24921.40254-.40845-.0108-1.84064-2.01153-2.2492z" />
        <path d="M157.48608 106.74502c.42882.26637 6.91492 1.58395 8.50002 1.84671.54946.11589.16005.68202-.59725 1.06423-1.70813.45393-9.99314-2.91094-7.90277-2.91094zm10.22845-24.02486 6.34874 6.44788c.60202.61517.59366 1.80727.2568 2.15009l-3.15226-2.52158-.61994 3.734-2.63387-1.3904-4.21775 2.66491-1.39637-5.6177-2.26594 3.92033h-3.46404c-1.4119 0-1.57792-1.79174-.29504-3.07463 2.24087-2.41885 4.81262-4.88429 6.21017-6.3129 1.40473-1.43579 3.85225-1.39517 5.2295 0z"
            fill="#fff" />
        <use style="line-height:100%;-inkscape-font-specification:&quot;Euphoria Script&quot;" font-family="Euphoria Script" font-weight="400" letter-spacing="0"
            stroke-width="2.24324"
            transform="translate(108) scale(1.08)"
            word-spacing="0" xlink:href="#g" />
        <path d="M-16.33612 128.91407h-5.3931v.34511h.16154c.72686 0 .80755.03694.80755.34526v3.92056c0 .3082-.08067.34497-.80755.34497h-.16153v.34512h5.50968l.17949-1.96036h-.39487c-.11645.5138-.32308.9691-.53832 1.18213-.27828.29361-.78975.43311-1.54345.43311h-.59231c-.26922 0-.49352-.04395-.57436-.11017-.06264-.04374-.0716-.08802-.0716-.24209v-1.87222h.17949c.54721 0 .77164.04395.95128.19803.23304.19116.32293.42609.34088.85905h.42172v-2.40805h-.42172c-.04493.71956-.40392 1.00586-1.25642 1.00586h-.21523v-1.67405c0-.31564.08078-.36715.5653-.36715h.46653c.78975 0 1.17557.0662 1.48084.27186.29609.19087.51133.60194.64602 1.26268h.38597l-.12579-1.87965Zm-11.90806 2.94418h1.01403c.8077 0 1.22942-.05141 1.58854-.19072.63696-.24983.99593-.7197.99593-1.2996 0-.55774-.31417-.98383-.90633-1.22608-.34993-.14665-.90634-.22778-1.5255-.22778h-3.14074v.34511h.16154c.72685 0 .80755.03694.80755.34526v3.92056c0 .3082-.08068.34497-.80755.34497h-.16154v.34512h3.0151v-.34512h-.23348c-.72685 0-.80755-.03672-.80755-.34497v-.21304Zm0-.34497v-1.8795c0-.33768.054-.3746.54752-.3746h.57435c.9332 0 1.37286.35985 1.37286 1.13807 0 .75633-.45761 1.11603-1.40876 1.11603zm-7.80699-2.7018h-.37677l-2.06411 4.28013c-.17934.38189-.21524.4334-.34978.55072-.14374.1395-.39502.22764-.6374.22764h-.03575v.34512h2.378v-.34512h-.17963c-.48433 0-.72671-.1395-.72671-.41837 0-.08823.027-.19086.08067-.30834l.29624-.64615h2.37798l.48462.98383c.0539.11017.07182.1614.07182.1983 0 .11733-.22458.19073-.55642.19073h-.37692v.34512h2.78191v-.34512h-.12564c-.44886 0-.5475-.05864-.75385-.46973l-2.28825-4.58876Zm-.43966 1.20403 1.01388 2.08512h-2.0101Zm-6.1919-1.15266h-.34101l-.35883.43325c-.6374-.38203-.98705-.49206-1.5884-.49206-.87044 0-1.5884.28645-2.1985.88095-.57437.55802-.8436 1.1747-.8436 1.93102 0 1.57862 1.26517 2.70925 3.0332 2.70925 1.43575 0 2.351-.69023 2.55748-1.92373l-.42173-.05864c-.08975.38919-.19757.6533-.35912.87365-.36773.50665-.94208.76377-1.66909.76377-1.32806 0-1.95611-.75647-1.95611-2.3348 0-.82987.1344-1.38775.43951-1.82829.27829-.41107.83455-.66818 1.40906-.66818.62806 0 1.18447.2717 1.5255.74173.17044.24223.30513.52854.51162 1.09385h.39442l-.1344-2.12175zm-8.98255.00756h-.33198l-.35897.44054c-.42187-.33037-.99608-.50665-1.6332-.50665-1.17557 0-1.96516.61668-1.96516 1.53469 0 .8001.48432 1.19659 1.80349 1.4756l.85248.17627c.6641.13936.72686.1541.9154.27172.26922.16868.41281.41092.41281.69738 0 .2936-.13469.53583-.40377.73429-.29623.21276-.59216.2936-1.08583.2936-.6641 0-1.13967-.16898-1.56139-.55073-.37693-.34525-.56531-.69022-.69986-1.25553h-.38597l.03585 2.09256h.35008l.40362-.49936c.60122.40378 1.10408.55073 1.88449.55073 1.31915 0 2.16274-.63127 2.16274-1.61539 0-.45514-.18853-.84418-.53832-1.12319-.24237-.19087-.5923-.31578-1.3104-.46257l-.96019-.19817c-.7985-.16884-1.17542-.45529-1.17542-.90313 0-.5138.51147-.8665 1.27422-.8665.6282 0 1.13952.22049 1.4985.63886.26033.30104.42172.60938.5386.98382h.38584l-.10768-1.90884zm-12.13234 2.94417v-2.20988c0-.30834.08057-.34526.80755-.34526h.17058v-.34511h-2.95235v.34511h.16154c.72685 0 .8074.03694.8074.34526v3.92056c0 .3082-.08056.34497-.8074.34497h-.16154v.34512h2.95235v-.34512h-.17058c-.727 0-.80755-.03682-.80755-.34497v-1.14536l1.04088-.85906 1.5614 1.87222c.14374.17612.17949.23494.17949.30848 0 .11733-.1703.1687-.61012.1687h-.27827v.3451h3.06894v-.3451h-.17044c-.49351 0-.6193-.05141-.87948-.36701l-2.17152-2.56244 1.33711-1.09386c.43063-.37443.978-.58749 1.51646-.58749v-.34511h-2.76397v.34511h.22458c.41283 0 .58312.0662.58312.22035 0 .1027-.1795.31564-.43968.52854zm-10.03263-2.90025h-1.84858v.34511h.22444c.45761 0 .6641.05876.8255.24253v3.12016c0 1.00587-.1795 1.21877-1.04089 1.2481v.34512h2.55762v-.34512c-.85278-.02937-1.03212-.24223-1.03212-1.2481v-2.72383l4.00243 4.41992h.37678v-3.81053c0-1.00572.17934-1.21877 1.04088-1.24825v-.34511h-2.55748v.34511c.8525.02949 1.03198.24253 1.03198 1.24825v2.30531Zm-5.83276.90313v-.21276c0-.30834.08067-.34526.7985-.34526h.17948v-.34511h-2.97015v.34511h.17948c.72685 0 .80755.03694.80755.34526v3.92056c0 .3082-.08067.34497-.80755.34497h-.17948v.34512h2.97015v-.34512h-.17949c-.7178 0-.7985-.03682-.7985-.34497v-.21304z"
            stroke-width="1pt" />
        <path
            d="m-54.67363 189.56866-16.04683 16.42071c-5.4218 6.71425 3.6898 5.93306 7.59579 7.86695 1.40114 1.4322-5.37044 2.48928-3.9693 3.92276 1.40113 1.4322 8.47254 2.75919 9.87607 4.19148 1.40115 1.4322-2.86798 2.95154-1.46684 4.38372 1.40114 1.4322 4.64181.0756 5.2486 3.3816.43242 2.3627 5.8399 1.0154 8.4845-.91974 1.40115-1.43337-2.68044-1.29837-1.2793-2.73056 3.48433-3.56324 6.72858-1.29492 7.92068-4.86518.5889-1.7643-5.12915-2.71988-3.72562-4.15206 4.03141-2.35438 17.9652-3.88691 11.35366-10.49844l-16.63333-17.00124c-2.03422-1.953-5.42897-1.9745-7.35808 0zm18.43224 31.65174c0 .81464 6.00233 1.3486 6.00233-.19235-.85525-2.47504-5.2928-2.30775-6.00233.19235zm-27.03856 4.32885c1.42144 1.22915 3.61693-.30585 4.27509-2.02111-1.37725-1.82995-6.5327.06588-4.2751 2.02111zm26.28603-2.6554c-1.83235 1.64366.20545 3.31118 2.01153 2.24921.40254-.40845-.0108-1.84064-2.01153-2.2492z" />
        <path d="M-58.51392 214.74502c.42882.26637 6.91492 1.58395 8.50002 1.84671.54946.11589.16005.68202-.59725 1.06423-1.70813.45393-9.99314-2.91094-7.90277-2.91094zm10.22845-24.02486 6.34874 6.44788c.60202.61517.59366 1.80727.2568 2.15009l-3.15226-2.52158-.61994 3.734-2.63387-1.3904-4.21775 2.66491-1.39637-5.6177-2.26594 3.92033h-3.46404c-1.4119 0-1.57792-1.79174-.29504-3.07463 2.24087-2.41885 4.81262-4.88429 6.21017-6.3129 1.40473-1.43579 3.85225-1.39517 5.2295 0z"
            fill="#fff" />
        <use style="line-height:100%;-inkscape-font-specification:&quot;Euphoria Script&quot;" font-family="Euphoria Script" font-weight="400" letter-spacing="0"
            stroke-width="2.24324"
            transform="matrix(1.08 0 0 1.08 -108 108)"
            word-spacing="0" xlink:href="#g" />
        <path d="M91.66388 128.91407h-5.3931v.34511h.16154c.72686 0 .80755.03694.80755.34526v3.92056c0 .3082-.08067.34497-.80755.34497h-.16153v.34512h5.50968l.17949-1.96036h-.39487c-.11645.5138-.32308.9691-.53832 1.18213-.27828.29361-.78975.43311-1.54345.43311h-.59231c-.26922 0-.49352-.04395-.57436-.11017-.06264-.04374-.0716-.08802-.0716-.24209v-1.87222h.17949c.54721 0 .77164.04395.95128.19803.23304.19116.32293.42609.34088.85905h.42172v-2.40805h-.42172c-.04493.71956-.40392 1.00586-1.25642 1.00586h-.21523v-1.67405c0-.31564.08078-.36715.5653-.36715h.46653c.78975 0 1.17557.0662 1.48084.27186.29609.19087.51133.60194.64602 1.26268h.38597l-.12579-1.87965Zm-11.90806 2.94418h1.01403c.8077 0 1.22942-.05141 1.58854-.19072.63696-.24983.99593-.7197.99593-1.2996 0-.55774-.31417-.98383-.90633-1.22608-.34993-.14665-.90634-.22778-1.5255-.22778h-3.14074v.34511h.16154c.72685 0 .80755.03694.80755.34526v3.92056c0 .3082-.08068.34497-.80755.34497h-.16154v.34512h3.0151v-.34512h-.23348c-.72685 0-.80755-.03672-.80755-.34497v-.21304Zm0-.34497v-1.8795c0-.33768.054-.3746.54752-.3746h.57435c.9332 0 1.37286.35985 1.37286 1.13807 0 .75633-.45761 1.11603-1.40876 1.11603zm-7.80699-2.7018h-.37677l-2.06411 4.28013c-.17934.38189-.21524.4334-.34978.55072-.14374.1395-.39502.22764-.6374.22764h-.03575v.34512h2.378v-.34512h-.17963c-.48433 0-.72671-.1395-.72671-.41837 0-.08823.027-.19086.08067-.30834l.29624-.64615h2.37798l.48462.98383c.0539.11017.07182.1614.07182.1983 0 .11733-.22458.19073-.55642.19073h-.37692v.34512h2.78191v-.34512h-.12564c-.44886 0-.5475-.05864-.75385-.46973l-2.28825-4.58876Zm-.43966 1.20403 1.01388 2.08512h-2.0101Zm-6.1919-1.15266h-.34101l-.35883.43325c-.6374-.38203-.98705-.49206-1.5884-.49206-.87044 0-1.5884.28645-2.1985.88095-.57437.55802-.8436 1.1747-.8436 1.93102 0 1.57862 1.26517 2.70925 3.0332 2.70925 1.43575 0 2.351-.69023 2.55748-1.92373l-.42173-.05864c-.08975.38919-.19757.6533-.35912.87365-.36773.50665-.94208.76377-1.66909.76377-1.32806 0-1.95611-.75647-1.95611-2.3348 0-.82987.1344-1.38775.43951-1.82829.27829-.41107.83455-.66818 1.40906-.66818.62806 0 1.18447.2717 1.5255.74173.17044.24223.30513.52854.51162 1.09385h.39442l-.1344-2.12175zm-8.98255.00756h-.33198l-.35897.44054c-.42187-.33037-.99608-.50665-1.6332-.50665-1.17557 0-1.96516.61668-1.96516 1.53469 0 .8001.48432 1.19659 1.80349 1.4756l.85248.17627c.6641.13936.72686.1541.9154.27172.26922.16868.41281.41092.41281.69738 0 .2936-.13469.53583-.40377.73429-.29623.21276-.59216.2936-1.08583.2936-.6641 0-1.13967-.16898-1.56139-.55073-.37693-.34525-.56531-.69022-.69986-1.25553h-.38597l.03585 2.09256h.35008l.40362-.49936c.60122.40378 1.10408.55073 1.88449.55073 1.31915 0 2.16274-.63127 2.16274-1.61539 0-.45514-.18853-.84418-.53832-1.12319-.24237-.19087-.5923-.31578-1.3104-.46257l-.96019-.19817c-.7985-.16884-1.17542-.45529-1.17542-.90313 0-.5138.51147-.8665 1.27422-.8665.6282 0 1.13952.22049 1.4985.63886.26033.30104.42172.60938.5386.98382h.38584l-.10768-1.90884zm-12.13234 2.94417v-2.20988c0-.30834.08057-.34526.80755-.34526h.17058v-.34511h-2.95235v.34511h.16154c.72685 0 .8074.03694.8074.34526v3.92056c0 .3082-.08056.34497-.8074.34497h-.16154v.34512h2.95235v-.34512h-.17058c-.727 0-.80755-.03682-.80755-.34497v-1.14536l1.04088-.85906 1.5614 1.87222c.14374.17612.17949.23494.17949.30848 0 .11733-.1703.1687-.61012.1687h-.27827v.3451h3.06894v-.3451h-.17044c-.49351 0-.6193-.05141-.87948-.36701l-2.17152-2.56244 1.33711-1.09386c.43063-.37443.978-.58749 1.51646-.58749v-.34511h-2.76397v.34511h.22458c.41283 0 .58312.0662.58312.22035 0 .1027-.1795.31564-.43968.52854zm-10.03263-2.90025h-1.84858v.34511h.22444c.45761 0 .6641.05876.8255.24253v3.12016c0 1.00587-.1795 1.21877-1.04089 1.2481v.34512h2.55762v-.34512c-.85278-.02937-1.03212-.24223-1.03212-1.2481v-2.72383l4.00243 4.41992h.37678v-3.81053c0-1.00572.17934-1.21877 1.04088-1.24825v-.34511h-2.55748v.34511c.8525.02949 1.03198.24253 1.03198 1.24825v2.30531Zm-5.83276.90313v-.21276c0-.30834.08067-.34526.7985-.34526h.17948v-.34511h-2.97015v.34511h.17948c.72685 0 .80755.03694.80755.34526v3.92056c0 .3082-.08067.34497-.80755.34497h-.17948v.34512h2.97015v-.34512h-.17949c-.7178 0-.7985-.03682-.7985-.34497v-.21304z"
            stroke-width="1pt" />
        <path
            d="m53.32637 189.56866-16.04683 16.42071c-5.4218 6.71425 3.6898 5.93306 7.59579 7.86695 1.40114 1.4322-5.37044 2.48928-3.9693 3.92276 1.40113 1.4322 8.47254 2.75919 9.87607 4.19148 1.40115 1.4322-2.86798 2.95154-1.46684 4.38372 1.40114 1.4322 4.64181.0756 5.2486 3.3816.43242 2.3627 5.8399 1.0154 8.4845-.91974 1.40115-1.43337-2.68044-1.29837-1.2793-2.73056 3.48433-3.56324 6.72858-1.29492 7.92068-4.86518.5889-1.7643-5.12915-2.71988-3.72562-4.15206 4.03141-2.35438 17.9652-3.88691 11.35366-10.49844l-16.63333-17.00124c-2.03422-1.953-5.42897-1.9745-7.35808 0zm18.43224 31.65174c0 .81464 6.00233 1.3486 6.00233-.19235-.85525-2.47504-5.2928-2.30775-6.00233.19235zm-27.03856 4.32885c1.42144 1.22915 3.61693-.30585 4.27509-2.02111-1.37725-1.82995-6.5327.06588-4.2751 2.02111zm26.28603-2.6554c-1.83235 1.64366.20545 3.31118 2.01153 2.24921.40254-.40845-.0108-1.84064-2.01153-2.2492z" />
        <path d="M49.48608 214.74502c.42882.26637 6.91492 1.58395 8.50002 1.84671.54946.11589.16005.68202-.59725 1.06423-1.70813.45393-9.99314-2.91094-7.90277-2.91094zm10.22845-24.02486 6.34874 6.44788c.60202.61517.59366 1.80727.2568 2.15009l-3.15226-2.52158-.61994 3.734-2.63387-1.3904-4.21775 2.66491-1.39637-5.6177-2.26594 3.92033H48.5699c-1.4119 0-1.57792-1.79174-.29504-3.07463 2.24087-2.41885 4.81262-4.88429 6.21017-6.3129 1.40473-1.43579 3.85225-1.39517 5.2295 0z"
            fill="#fff" />
        <use style="line-height:100%;-inkscape-font-specification:&quot;Euphoria Script&quot;" font-family="Euphoria Script" font-weight="400" letter-spacing="0"
            stroke-width="2.24324"
            transform="matrix(1.08 0 0 1.08 0 108)"
            word-spacing="0" xlink:href="#g" />
        <path d="M199.66388 128.91407h-5.3931v.34511h.16154c.72686 0 .80755.03694.80755.34526v3.92056c0 .3082-.08067.34497-.80755.34497h-.16153v.34512h5.50968l.17949-1.96036h-.39487c-.11645.5138-.32308.9691-.53832 1.18213-.27828.29361-.78975.43311-1.54345.43311h-.59231c-.26922 0-.49352-.04395-.57436-.11017-.06264-.04374-.0716-.08802-.0716-.24209v-1.87222h.17949c.54721 0 .77164.04395.95128.19803.23304.19116.32293.42609.34088.85905h.42172v-2.40805h-.42172c-.04493.71956-.40392 1.00586-1.25642 1.00586h-.21523v-1.67405c0-.31564.08078-.36715.5653-.36715h.46653c.78975 0 1.17557.0662 1.48084.27186.29609.19087.51133.60194.64602 1.26268h.38597l-.12579-1.87965Zm-11.90806 2.94418h1.01403c.8077 0 1.22942-.05141 1.58854-.19072.63696-.24983.99593-.7197.99593-1.2996 0-.55774-.31417-.98383-.90633-1.22608-.34993-.14665-.90634-.22778-1.5255-.22778h-3.14074v.34511h.16154c.72685 0 .80755.03694.80755.34526v3.92056c0 .3082-.08068.34497-.80755.34497h-.16154v.34512h3.0151v-.34512h-.23348c-.72685 0-.80755-.03672-.80755-.34497v-.21304Zm0-.34497v-1.8795c0-.33768.054-.3746.54752-.3746h.57435c.9332 0 1.37286.35985 1.37286 1.13807 0 .75633-.45761 1.11603-1.40876 1.11603zm-7.80699-2.7018h-.37677l-2.06411 4.28013c-.17934.38189-.21524.4334-.34978.55072-.14374.1395-.39502.22764-.6374.22764h-.03575v.34512h2.378v-.34512h-.17963c-.48433 0-.72671-.1395-.72671-.41837 0-.08823.027-.19086.08067-.30834l.29624-.64615h2.37798l.48462.98383c.0539.11017.07182.1614.07182.1983 0 .11733-.22458.19073-.55642.19073h-.37692v.34512h2.78191v-.34512h-.12564c-.44886 0-.5475-.05864-.75385-.46973l-2.28825-4.58876Zm-.43966 1.20403 1.01388 2.08512h-2.0101Zm-6.1919-1.15266h-.34101l-.35883.43325c-.6374-.38203-.98705-.49206-1.5884-.49206-.87044 0-1.5884.28645-2.1985.88095-.57437.55802-.8436 1.1747-.8436 1.93102 0 1.57862 1.26517 2.70925 3.0332 2.70925 1.43575 0 2.351-.69023 2.55748-1.92373l-.42173-.05864c-.08975.38919-.19757.6533-.35912.87365-.36773.50665-.94208.76377-1.66909.76377-1.32806 0-1.95611-.75647-1.95611-2.3348 0-.82987.1344-1.38775.43951-1.82829.27829-.41107.83455-.66818 1.40906-.66818.62806 0 1.18447.2717 1.5255.74173.17044.24223.30513.52854.51162 1.09385h.39442l-.1344-2.12175zm-8.98255.00756h-.33198l-.35897.44054c-.42187-.33037-.99608-.50665-1.6332-.50665-1.17557 0-1.96516.61668-1.96516 1.53469 0 .8001.48432 1.19659 1.80349 1.4756l.85248.17627c.6641.13936.72686.1541.9154.27172.26922.16868.41281.41092.41281.69738 0 .2936-.13469.53583-.40377.73429-.29623.21276-.59216.2936-1.08583.2936-.6641 0-1.13967-.16898-1.56139-.55073-.37693-.34525-.56531-.69022-.69986-1.25553h-.38597l.03585 2.09256h.35008l.40362-.49936c.60122.40378 1.10408.55073 1.88449.55073 1.31915 0 2.16274-.63127 2.16274-1.61539 0-.45514-.18853-.84418-.53832-1.12319-.24237-.19087-.5923-.31578-1.3104-.46257l-.96019-.19817c-.7985-.16884-1.17542-.45529-1.17542-.90313 0-.5138.51147-.8665 1.27422-.8665.6282 0 1.13952.22049 1.4985.63886.26033.30104.42172.60938.5386.98382h.38584l-.10768-1.90884zm-12.13234 2.94417v-2.20988c0-.30834.08057-.34526.80755-.34526h.17058v-.34511h-2.95235v.34511h.16154c.72685 0 .8074.03694.8074.34526v3.92056c0 .3082-.08056.34497-.8074.34497h-.16154v.34512h2.95235v-.34512h-.17058c-.727 0-.80755-.03682-.80755-.34497v-1.14536l1.04088-.85906 1.5614 1.87222c.14374.17612.17949.23494.17949.30848 0 .11733-.1703.1687-.61012.1687h-.27827v.3451h3.06894v-.3451h-.17044c-.49351 0-.6193-.05141-.87948-.36701l-2.17152-2.56244 1.33711-1.09386c.43063-.37443.978-.58749 1.51646-.58749v-.34511h-2.76397v.34511h.22458c.41283 0 .58312.0662.58312.22035 0 .1027-.1795.31564-.43968.52854zm-10.03263-2.90025h-1.84858v.34511h.22444c.45761 0 .6641.05876.8255.24253v3.12016c0 1.00587-.1795 1.21877-1.04089 1.2481v.34512h2.55762v-.34512c-.85278-.02937-1.03212-.24223-1.03212-1.2481v-2.72383l4.00243 4.41992h.37678v-3.81053c0-1.00572.17934-1.21877 1.04088-1.24825v-.34511h-2.55748v.34511c.8525.02949 1.03198.24253 1.03198 1.24825v2.30531Zm-5.83276.90313v-.21276c0-.30834.08067-.34526.7985-.34526h.17948v-.34511h-2.97015v.34511h.17948c.72685 0 .80755.03694.80755.34526v3.92056c0 .3082-.08067.34497-.80755.34497h-.17948v.34512h2.97015v-.34512h-.17949c-.7178 0-.7985-.03682-.7985-.34497v-.21304z"
            stroke-width="1pt" />
        <path
            d="m161.32637 189.56866-16.04683 16.42071c-5.4218 6.71425 3.6898 5.93306 7.59579 7.86695 1.40114 1.4322-5.37044 2.48928-3.9693 3.92276 1.40113 1.4322 8.47254 2.75919 9.87607 4.19148 1.40115 1.4322-2.86798 2.95154-1.46684 4.38372 1.40114 1.4322 4.64181.0756 5.2486 3.3816.43242 2.3627 5.8399 1.0154 8.4845-.91974 1.40115-1.43337-2.68044-1.29837-1.2793-2.73056 3.48433-3.56324 6.72858-1.29492 7.92068-4.86518.5889-1.7643-5.12915-2.71988-3.72562-4.15206 4.03141-2.35438 17.9652-3.88691 11.35366-10.49844l-16.63333-17.00124c-2.03422-1.953-5.42897-1.9745-7.35808 0zm18.43224 31.65174c0 .81464 6.00233 1.3486 6.00233-.19235-.85525-2.47504-5.2928-2.30775-6.00233.19235zm-27.03856 4.32885c1.42144 1.22915 3.61693-.30585 4.27509-2.02111-1.37725-1.82995-6.5327.06588-4.2751 2.02111zm26.28603-2.6554c-1.83235 1.64366.20545 3.31118 2.01153 2.24921.40254-.40845-.0108-1.84064-2.01153-2.2492z" />
        <path d="M157.48608 214.74502c.42882.26637 6.91492 1.58395 8.50002 1.84671.54946.11589.16005.68202-.59725 1.06423-1.70813.45393-9.99314-2.91094-7.90277-2.91094zm10.22845-24.02486 6.34874 6.44788c.60202.61517.59366 1.80727.2568 2.15009l-3.15226-2.52158-.61994 3.734-2.63387-1.3904-4.21775 2.66491-1.39637-5.6177-2.26594 3.92033h-3.46404c-1.4119 0-1.57792-1.79174-.29504-3.07463 2.24087-2.41885 4.81262-4.88429 6.21017-6.3129 1.40473-1.43579 3.85225-1.39517 5.2295 0z"
            fill="#fff" />
        <use style="line-height:100%;-inkscape-font-specification:&quot;Euphoria Script&quot;" font-family="Euphoria Script" font-weight="400" letter-spacing="0"
            stroke-width="2.24324"
            transform="matrix(1.08 0 0 1.08 108 108)"
            word-spacing="0" xlink:href="#g" /></g>
    <use height="100%" transform="translate(0 108)" width="100%" xlink:href="#h" />
    <use height="100%" transform="translate(0 216)" width="100%" xlink:href="#h" />
    <use height="100%" transform="translate(108)" width="100%" xlink:href="#h" />
    <use height="100%" transform="translate(108 108)" width="100%" xlink:href="#h" />
    <use height="100%" transform="translate(108 216)" width="100%" xlink:href="#h" />
    <use height="100%" transform="translate(216)" width="100%" xlink:href="#h" />
    <use height="100%" transform="translate(216 108)" width="100%" xlink:href="#h" />
    <use height="100%" transform="translate(216 216)" width="100%" xlink:href="#h" />
    <g transform="scale(1.08)"><path style="marker:none" color="#000" d="M0 0h100v100H0z"   fill="#3ddc84"/>
        <circle cx="50" cy="50" fill="#fff" fill-opacity=".76" r="22.22222" /></g>
    <g transform="translate(-8.1 -8.1) scale(1.242)"><path d="M6.52174 6.52174h86.95652v86.95652H6.52174z" fill="none"/>
        <circle cx="50" cy="50" fill="#dab858" r="16.18358" />
        <path d="M38.5368 44.2684c-.8188 3.2752-.8188 8.1879.00002 11.46317.81882 3.27526 2.45635 4.9128 5.73161 5.73161 3.27527.81882 8.18787.81882 11.46314 0 3.27526-.81881 4.9128-2.45635 5.73161-5.73161.81882-3.27527.81882-8.18787 0-11.46314-.81881-3.27526-2.45635-4.9128-5.73161-5.73161-3.27527-.81882-8.18787-.81882-11.46313 0-3.27527.81881-4.91284 2.45638-5.73164 5.73158z"
            fill="#e3c982" />
        <rect fill="#eddbab" height="16.10306" rx="3.22061" ry="3.22061" width="16.10306"
            x="41.94847" y="41.94847" />
        <g clip-path="url(#i)" fill="none" filter="url(#j)"
            transform="translate(-69.07383 50.80515) scale(.04785)"><path d="M2823.2673-67.55775c-.22-1.378-.43-2.74-.66-4.102-1.39-8.451-3.12-16.803-5.13-25.041-3.53-14.391-7.97-28.437-13.27-42.04-4.48-11.52-9.58-22.727-15.24-33.59-7.28-13.948-15.49-27.338-24.56-40.072-11.12-15.605-23.54-30.225-37.1-43.697-5.69-5.662-11.58-11.126-17.66-16.361-13.17-11.371-27.24-21.725-42.06-30.98.13-.214.24-.443.37-.657 6.79-11.732 13.6-23.449 20.39-35.181 6.64-11.454 13.28-22.908 19.92-34.361 4.78-8.221 9.55-16.459 14.3-24.68 1.13-1.953 2.02-3.971 2.69-6.038 1.86-5.76 1.94-11.815.45-17.444-.38-1.394-.84-2.756-1.4-4.085-.56-1.33-1.21-2.626-1.95-3.873-2.54-4.266-6.17-7.97499-10.73-10.68299-4.03-2.395-8.54-3.823-13.16-4.233-1.94-.164-3.89-.148-5.83.049-1.6.164-3.19.46-4.77.87-5.62 1.493-10.84 4.578-14.9 9.04099-1.46 1.608-2.78 3.381-3.91 5.333-4.77 8.221-9.54 16.459-14.3 24.68l-19.92 34.361c-6.79 11.733-13.6 23.449-20.39 35.182-.74 1.279-1.49 2.559-2.23 3.856-1.03-.411-2.05-.821-3.08-1.215-37.44-14.276-78.06-22.086-120.52-22.086-1.16 0-2.31 0-3.48.016-37.75.377-74.02 6.941-107.86 18.723-3.91 1.362-7.78 2.806-11.62 4.316-.69-1.198-1.4-2.396-2.08-3.594-6.79-11.733-13.6-23.449-20.39-35.182-6.64-11.453-13.28-22.907-19.92-34.361-4.78-8.221-9.55-16.458-14.3-24.679-1.14-1.953-2.45-3.725-3.91-5.333-4.06-4.46399-9.28-7.54899-14.9-9.04199-1.58-.41-3.17-.705-4.78-.869-1.93-.197-3.88-.214-5.82-.05-4.62.394-9.13 1.822-13.17 4.234-4.56 2.707-8.16 6.41599-10.72 10.68199-.74 1.247-1.4 2.544-1.95 3.873-.56 1.329-1.04 2.691-1.4 4.086-1.49 5.628-1.41 11.683.44 17.443.68 2.068 1.56 4.086 2.69 6.039 4.78 8.221 9.55 16.458 14.3 24.679 6.65 11.454 13.29 22.908 19.93 34.361 6.79 11.733 13.59 23.449 20.38 35.182.05.098.12.197.17.295-13.7 8.517-26.73 17.952-39.03 28.273-7.37 6.187-14.47 12.668-21.27 19.445-13.55 13.472-25.96 28.093-37.1 43.698-9.08 12.734-17.3 26.107-24.56 40.072-5.66 10.863-10.76 22.07-15.24 33.59-5.3 13.603-9.74 27.649-13.27 42.04-2.01 8.238-3.72 16.574-5.13 25.041-.23 1.362-.44 2.74-.65 4.102-.76 4.907-1.4 9.846-1.94 14.818h673.11c-.54-4.972-1.18-9.911-1.93-14.818z" fill="#34a853"/></g>
        <g fill="none"><path d="M66.0137 47.57265c-.01053-.06593-.02058-.1311-.03159-.19627-.0665-.40436-.14928-.80399-.24546-1.19816-.1689-.68858-.38134-1.36065-.63494-2.01153-.21436-.5512-.45838-1.08744-.7292-1.6072-.34833-.6674-.74117-1.30808-1.17515-1.91737a16.20133 16.20133 0 0 0-1.77516-2.09081c-.27225-.27092-.55407-.53236-.84499-.78284-.63016-.54408-1.30338-1.0395-2.01248-1.48233.00622-.01024.01148-.0212.0177-.03144.32489-.56135.65073-1.12198.97562-1.68334.3177-.54805.63542-1.0961.95313-1.6441.22871-.39336.45695-.78753.68423-1.18089a1.49765 1.49765 0 0 0 .1287-.2889c.089-.2756.09283-.56533.02154-.83466-.01818-.0667-.0402-.13187-.06699-.19546a1.51562 1.51562 0 0 0-.0933-.18532c-.12154-.20411-.29522-.38158-.51341-.51116-.19283-.1146-.40862-.18292-.62968-.20254a1.50506 1.50506 0 0 0-.27895.00235c-.07656.00785-.15264.022-.22824.04163-.2689.07143-.51867.21904-.71293.43259-.06986.07694-.13302.16177-.18709.25517a1494.954 1494.954 0 0 0-.68422 1.18089l-.95313 1.6441c-.3249.5614-.65074 1.12199-.97562 1.68339-.03541.0612-.0713.12244-.1067.1845-.04929-.01966-.0981-.03928-.14738-.05813-1.79142-.68308-3.735-1.05677-5.76663-1.05677-.0555 0-.11053 0-.16651.00076-1.80626.01804-3.5417.33211-5.16088.89586-.18709.06517-.37226.13426-.556.20651-.033-.05732-.06698-.11464-.09952-.17196-.32488-.5614-.65073-1.122-.97562-1.6834-.3177-.548-.63542-1.09604-.95313-1.6441a499.8781 499.8781 0 0 1-.68422-1.18083 1.51342 1.51342 0 0 0-.18709-.25518c-.19426-.21359-.44403-.3612-.71293-.43264-.0756-.01962-.15168-.03373-.22872-.04158a1.49956 1.49956 0 0 0-.27847-.00239c-.22106.01885-.43685.08718-.63016.20259-.21818.12952-.39044.307-.51293.51111-.0354.05967-.06698.12173-.0933.18532-.0268.06359-.04976.12875-.06699.1955-.0713.26929-.06746.559.02105.83461.03254.09895.07465.19551.12872.28896.2287.39336.45694.78748.68422 1.18084.31819.54805.6359 1.0961.95361 1.6441.32489.5614.65025 1.12199.97514 1.68339.0024.00468.00574.00942.00814.01411-.65552.40752-1.27898.85897-1.8675 1.3528-.35265.29604-.69237.60614-1.01773.9304-.64834.64462-1.24214 1.3442-1.77516 2.09087-.43446.6093-.82777 1.24916-1.17515 1.91736-.27082.51977-.51484 1.056-.7292 1.60721-.2536.65088-.46604 1.32295-.63494 2.01153a16.44854 16.44854 0 0 0-.24546 1.19816c-.011.06517-.02106.1311-.0311.19627-.03637.2348-.067.47111-.09283.70901h32.20693c-.02584-.2379-.05646-.47422-.09235-.709z" fill="#34a853"/>
            <path d="M58.37764 43.82889c.64451-.429.7383-1.42156.2091-2.21685-.52872-.79532-1.47994-1.09222-2.12397-.66322-.64452.42906-.7383 1.42157-.2091 2.21685.52872.79533 1.47994 1.09227 2.12397.66322zm-14.60271-.66045c.5292-.79533.43541-1.78784-.2091-2.21684-.64451-.42905-1.59525-.1321-2.12445.66317-.52872.79533-.43493 1.78784.2091 2.21684.64451.42906 1.59573.13211 2.12445-.66317z"
                fill="#fff" /></g></g>
    <text style="line-height:0%;-inkscape-font-specification:Verdana" font-family="sans-serif" font-weight="400" letter-spacing="0"
        transform="scale(1.08)" word-spacing="0"
        x="-326.82172" y="-349.80621"
        xml:space="preserve"><tspan style="line-height:1.25;-inkscape-font-specification:&quot;sans-serif Bold&quot;" font-size="23.6686" font-weight="700" x="-326.82172" y="-349.80621">Seamless pattern</tspan></text>
    <path style="text-decoration-line:none;marker:none" color="#000" d="M-354.4906-359.49h-6.1704V51.51566h229.6052" fill="none"
        marker-end="url(#k)" stroke="#000"
        stroke-width="3.77953" transform="scale(1.08)" />
    <path
        style="line-height:125%;-inkscape-font-specification:&quot;sans-serif Bold&quot;"
        d="M-29.56541 100v-7.16704h2.00731v4.51126h1.91761v-4.24223h2.00731v4.24223h4.36647V100Zm6.82211-12.18186q0 .77256.26214 1.16575.26214.38628.77256.38628.46906 0 .73808-.3104.26214-.31731.26214-.87604 0-.6967-.49667-1.17266-.50355-.47596-1.25547-.47596h-.28278zm-.93124-3.7732h4.40783v2.49017h-1.14504q.70359.49666 1.02773 1.11747.31735.62082.31735 1.51066 0 1.20024-.69671 1.95213-.70359.74498-1.82103.74498-1.35893 0-1.99355-.93123-.63462-.93812-.63462-2.93854v-1.45547h-.19316q-.58628 0-.8553.46216-.2759.46217-.2759 1.44168 0 .79327.15859 1.47617.15868.6829.47603 1.26923h-1.88321q-.19317-.79327-.28966-1.59344-.10355-.80016-.10355-1.60033 0-2.09008.82778-3.01441.8209-.93123 2.67642-.93123zm-3.07651-8.31896h1.87625q-.33111.79327-.49658 1.53136-.16556.73808-.16556 1.39338 0 .7036.17932 1.04849.17243.338.53803.338.29663 0 .45531-.25522.15858-.26212.23453-.93122l.0624-.43458q.2415-1.89694.79329-2.55225.55189-.65531 1.73142-.65531 1.23474 0 1.85551.91054.62086.91053.62086 2.7178 0 .76568-.12419 1.58654-.11722.81396-.35872 1.67621h-1.87624q.35872-.73809.53803-1.51067.17941-.77947.17941-1.57963 0-.72429-.20005-1.08988-.20004-.3656-.59325-.3656-.33111 0-.4897.25524-.16555.24832-.25525 1.00019l-.055.43458q-.20692 1.64862-.76568 2.31082-.55868.66221-1.69684.66221-1.22787 0-1.82112-.84156-.59325-.84155-.59325-2.57984 0-.6829.10355-1.43477.10346-.75188.32415-1.63483zm-2.43491-5.04932h2.19351v-2.54535h1.7659v2.54535h3.27654q.53804 0 .7312-.21383.1862-.21384.1862-.84846v-1.26922h1.7659v2.11768q0 1.46237-.60701 2.07628-.61398.60703-2.07629.60703h-3.27654v1.22784h-1.7659v-1.22784h-2.19351zm8.80181-11.44374h4.05599v2.46948h-10.66429v-2.46948h1.13128q-.67598-.51044-.99334-1.13127-.32423-.62081-.32423-1.42788 0-1.42787 1.13826-2.3453 1.13119-.91744 2.91782-.91744 1.78654 0 2.92471.91744 1.13128.91743 1.13128 2.3453 0 .80707-.31735 1.42788-.32414.62083-1.00013 1.13127zm-5.00108-1.64171q0 .79327.58637 1.22093.5794.42078 1.6762.42078 1.09671 0 1.68308-.42078.5794-.42766.5794-1.22093 0-.79327-.5794-1.20715-.5794-.42078-1.68308-.42078-1.10368 0-1.68317.42078-.5794.41388-.5794 1.20715zm.49667-11.75415q-.1518.3242-.22077.6484-.0761.31731-.0761.64151 0 .95193.61389 1.46927.6071.51045 1.74526.51045h3.55932v2.46948h-7.72574v-2.46948h1.26923q-.7588-.47595-1.10367-1.08988-.35185-.62081-.35185-1.48306 0-.12416.0138-.26902.009-.14486.0413-.42078l2.23496-.007zm1.73829-8.95358h.7036v5.77361q.86914-.0897 1.30372-.62772.43457-.53804.43457-1.50375 0-.77948-.22765-1.59344-.23453-.82086-.70359-1.6831h1.90385q.33111.87604.49667 1.75208.17243.87604.17243 1.75209 0 2.09698-1.06231 3.26274-1.06919 1.15886-2.99368 1.15886-1.89009 0-2.97304-1.13817-1.08304-1.14506-1.08304-3.14547 0-1.82107 1.0968-2.91095 1.0968-1.09678 2.93167-1.09678zm-.8209 2.53846q-.70359 0-1.13119.41388-.43458.40698-.43458 1.06918 0 .71739.40697 1.16576.40009.44836 1.1588.55873zm-3.02128-3.4283v-2.46947l5.33907-1.92454-5.33907-1.91764v-2.47637l7.72574 3.04201v2.7109zm0-10.1883v-2.46948h7.72574v2.46948zm-3.00753 0v-2.46948h2.01419v2.46948zm6.84971-12.56812h.7036v5.77361q.86914-.0897 1.30372-.62772.43457-.53805.43457-1.50376 0-.77947-.22765-1.59344-.23453-.82085-.70359-1.6831h1.90385q.33111.87604.49667 1.75208.17243.87605.17243 1.75209 0 2.09698-1.06231 3.26275-1.06919 1.15885-2.99368 1.15885-1.89009 0-2.97304-1.13816-1.08304-1.14506-1.08304-3.14548 0-1.82106 1.0968-2.91094 1.0968-1.09678 2.93167-1.09678zm-.8209 2.53845q-.70359 0-1.13119.41389-.43458.40697-.43458 1.06918 0 .71738.40697 1.16575.40009.44837 1.1588.55874zm-3.02128-3.71111v-2.4005l5.32522-1.29681-5.32522-1.30372v-2.0625l5.2701-1.29682-5.2701-1.30371V0l7.72574 2.0349v2.69711l-5.31147 1.30372 5.31147 1.29682v2.69711z"
        transform="translate(233.28) scale(1.08)" /></svg>